<svg width="699" height="297" viewBox="0 0 699 297" fill="none" xmlns="http://www.w3.org/2000/svg">
<g clip-path="url(#clip0_19_763)">
<path d="M396.266 455.508C511.794 455.508 605.448 361.854 605.448 246.326C605.448 130.798 511.794 37.1443 396.266 37.1443C280.738 37.1443 187.084 130.798 187.084 246.326C187.084 361.854 280.738 455.508 396.266 455.508Z" stroke="url(#paint0_linear_19_763)" stroke-width="2.797"/>
<path d="M367.308 222.939V169.588L348.101 138.431L220.912 133.309L169.269 149.955L165.854 214.829L169.269 272.022L193.597 287.387L201.706 328.787L263.593 292.082L325.907 287.387L367.308 265.193V222.939Z" fill="#0AA2C0"/>
<path d="M629.963 274.958C614.351 282.703 593.628 272.745 593.628 272.745C593.628 272.745 598.233 250.234 613.855 242.499C629.468 234.755 650.182 244.703 650.182 244.703C650.182 244.703 645.576 267.213 629.963 274.958Z" fill="url(#paint1_linear_19_763)"/>
<path d="M253.551 82.0927C247.076 82.0927 241.826 87.3422 241.826 93.8178C241.826 100.293 247.076 105.543 253.551 105.543C260.027 105.543 265.277 100.293 265.277 93.8178C265.277 87.3422 260.027 82.0927 253.551 82.0927Z" fill="#0AA2C0"/>
<path d="M89.4095 192.486C84.0131 192.486 79.6384 188.111 79.6384 182.715C79.6384 177.318 84.0131 172.944 89.4095 172.944C94.806 172.944 99.1806 177.318 99.1806 182.715C99.1806 188.111 94.806 192.486 89.4095 192.486Z" fill="#0AA2C0"/>
<path d="M544.08 218.189C541.561 218.189 539.52 216.147 539.52 213.629C539.52 211.11 541.561 209.069 544.08 209.069C546.598 209.069 548.64 211.11 548.64 213.629C548.64 216.147 546.598 218.189 544.08 218.189Z" fill="#0AA2C0"/>
<path d="M502.147 123.932C498.587 123.932 495.701 121.047 495.701 117.487C495.701 113.928 498.587 111.042 502.147 111.042C505.706 111.042 508.592 113.928 508.592 117.487C508.592 121.047 505.706 123.932 502.147 123.932Z" fill="#E1E4E5"/>
<path d="M120.096 295.388C116.138 295.388 112.93 292.18 112.93 288.223C112.93 284.265 116.138 281.057 120.096 281.057C124.053 281.057 127.261 284.265 127.261 288.223C127.261 292.18 124.053 295.388 120.096 295.388Z" fill="#E1E4E5"/>
<path d="M293.481 63.6252C294.401 67.0578 292.364 70.5861 288.931 71.5059C285.499 72.4256 281.97 70.3886 281.051 66.956C280.131 63.5233 282.168 59.995 285.6 59.0753C289.033 58.1555 292.561 60.1926 293.481 63.6252Z" fill="#E1E4E5"/>
<path d="M349.405 90.6764C344.678 90.6764 340.845 86.844 340.845 82.1164C340.845 77.3889 344.678 73.5565 349.405 73.5565C354.133 73.5565 357.965 77.3889 357.965 82.1164C357.965 86.844 354.133 90.6764 349.405 90.6764Z" fill="#E1E4E5"/>
<path d="M501.888 57.2208C503.802 64.3647 499.562 71.7077 492.418 73.6219C485.275 75.5361 477.932 71.2966 476.017 64.1527C474.103 57.0088 478.343 49.6658 485.486 47.7516C492.63 45.8374 499.973 50.0769 501.888 57.2208Z" fill="#E1E4E5"/>
<path d="M127.255 201.599H127.427C128.447 216.051 139.195 216.273 139.195 216.273C139.195 216.273 127.343 216.505 127.343 233.204C127.343 216.505 115.491 216.273 115.491 216.273C115.491 216.273 126.235 216.051 127.255 201.599ZM627.001 315.129H627.154C628.059 328.21 637.596 328.411 637.596 328.411C637.596 328.411 627.079 328.621 627.079 343.734C627.079 328.621 616.563 328.411 616.563 328.411C616.563 328.411 626.096 328.21 627.001 315.129Z" fill="#E1E4E5"/>
<path fill-rule="evenodd" clip-rule="evenodd" d="M210.132 277.573V312.893L267.924 278.743L273.964 278.644C297.983 278.251 319.599 275.832 335.762 273.373C345.962 271.821 353.05 264.703 354.589 255.764C356.725 243.365 358.544 227.656 358.544 210.201C358.544 192.747 356.725 177.038 354.589 164.64C353.05 155.701 345.962 148.582 335.762 147.03C318.084 144.34 293.909 141.703 267.213 141.703C240.518 141.703 216.343 144.34 198.665 147.03C188.466 148.582 181.377 155.701 179.837 164.64C177.702 177.038 175.883 192.747 175.883 210.201C175.883 227.656 177.702 243.365 179.837 255.764C181.175 263.526 186.598 269.747 194.504 272.376L210.132 277.573ZM157.337 160.763C160.649 141.53 175.937 127.393 195.231 124.457C213.718 121.644 239.079 118.87 267.213 118.87C295.348 118.87 320.709 121.644 339.196 124.457C358.491 127.393 373.778 141.53 377.091 160.763C379.4 174.168 381.377 191.196 381.377 210.201C381.377 229.206 379.4 246.235 377.091 259.639C373.778 278.872 358.491 293.011 339.196 295.946C322.284 298.519 299.618 301.06 274.338 301.474L204.524 342.728C196.913 347.225 187.299 341.739 187.299 332.899V294.043C171.848 288.905 160.18 276.149 157.337 259.639C155.028 246.235 153.05 229.206 153.05 210.201C153.05 191.196 155.028 174.168 157.337 160.763Z" fill="#0AA2C0"/>
<path fill-rule="evenodd" clip-rule="evenodd" d="M210.132 176.206C203.827 176.206 198.716 181.318 198.716 187.623C198.716 193.928 203.827 199.039 210.132 199.039H324.295C330.6 199.039 335.712 193.928 335.712 187.623C335.712 181.318 330.6 176.206 324.295 176.206H210.132ZM210.132 221.872C203.827 221.872 198.716 226.983 198.716 233.288C198.716 239.593 203.827 244.704 210.132 244.704H255.797C262.102 244.704 267.213 239.593 267.213 233.288C267.213 226.983 262.102 221.872 255.797 221.872H210.132Z" fill="white"/>
<path d="M372.541 286.301V232.951L391.748 201.793L518.936 196.672L570.58 213.317L573.994 278.192L570.58 335.384L546.252 350.749L538.142 392.149L476.255 355.444L413.942 350.749L372.541 328.555V286.301Z" fill="#0AA2C0"/>
<path fill-rule="evenodd" clip-rule="evenodd" d="M529.586 341.563V376.882L471.794 342.732L465.753 342.634C441.734 342.24 420.118 339.822 403.956 337.363C393.755 335.81 386.668 328.691 385.128 319.752C382.992 307.354 381.173 291.645 381.173 274.191C381.173 256.736 382.992 241.028 385.128 228.629C386.668 219.69 393.755 212.571 403.956 211.02C421.633 208.329 445.809 205.693 472.504 205.693C499.199 205.693 523.374 208.329 541.052 211.02C551.252 212.571 558.34 219.69 559.88 228.629C562.015 241.028 563.834 256.736 563.834 274.191C563.834 291.645 562.015 307.354 559.88 319.752C558.542 327.515 553.12 333.737 545.213 336.366L529.586 341.563ZM582.38 224.753C579.068 205.52 563.78 191.382 544.487 188.447C526 185.633 500.638 182.86 472.504 182.86C444.369 182.86 419.008 185.633 400.521 188.447C381.227 191.382 365.939 205.52 362.626 224.753C360.318 238.157 358.34 255.186 358.34 274.191C358.34 293.196 360.318 310.224 362.626 323.629C365.939 342.862 381.227 356.999 400.521 359.936C417.433 362.509 440.1 365.049 465.379 365.463L535.194 406.718C542.804 411.214 552.418 405.729 552.418 396.889V358.032C567.87 352.894 579.537 340.138 582.38 323.629C584.689 310.224 586.667 293.196 586.667 274.191C586.667 255.186 584.689 238.157 582.38 224.753Z" fill="#0AA2C0"/>
<path fill-rule="evenodd" clip-rule="evenodd" d="M415.422 240.195C409.117 240.195 404.006 245.307 404.006 251.612C404.006 257.917 409.117 263.028 415.422 263.028H529.586C535.89 263.028 541.002 257.917 541.002 251.612C541.002 245.307 535.89 240.195 529.586 240.195H415.422ZM415.422 285.861C409.117 285.861 404.006 290.972 404.006 297.277C404.006 303.582 409.117 308.694 415.422 308.694H461.088C467.393 308.694 472.504 303.582 472.504 297.277C472.504 290.972 467.393 285.861 461.088 285.861H415.422Z" fill="white"/>
<path d="M413.417 73.7885C414.888 72.9394 416.556 72.4923 418.255 72.4923C419.953 72.4923 421.621 72.9394 423.092 73.7885L453.103 91.1151C454.574 91.9643 455.795 93.1856 456.644 94.6564C457.494 96.1272 457.941 97.7956 457.94 99.4939V134.148C457.94 137.604 456.097 140.798 453.103 142.527L423.092 159.853C421.621 160.703 419.953 161.15 418.255 161.15C416.556 161.15 414.888 160.703 413.417 159.853L383.406 142.527C381.935 141.677 380.714 140.456 379.865 138.985C379.016 137.515 378.569 135.846 378.569 134.148V99.4939C378.569 97.7956 379.016 96.1273 379.865 94.6566C380.714 93.1858 381.935 91.9644 383.406 91.1151L413.417 73.7885Z" fill="#0AA2C0"/>
<path d="M432.429 108.26L415.701 124.853L405.665 114.898" stroke="white" stroke-width="7.441" stroke-linecap="round" stroke-linejoin="round"/>
</g>
<defs>
<linearGradient id="paint0_linear_19_763" x1="405.235" y1="692.501" x2="392.264" y2="-421.607" gradientUnits="userSpaceOnUse">
<stop stop-color="white"/>
<stop offset="1" stop-color="#EEEEEE"/>
</linearGradient>
<linearGradient id="paint1_linear_19_763" x1="570.008" y1="299.117" x2="698.784" y2="197.254" gradientUnits="userSpaceOnUse">
<stop stop-color="white"/>
<stop offset="1" stop-color="#EEEEEE"/>
</linearGradient>
<clipPath id="clip0_19_763">
<rect width="738" height="492" fill="white"/>
</clipPath>
</defs>
</svg>
