<svg width="609" height="406" viewBox="0 0 609 406" fill="none" xmlns="http://www.w3.org/2000/svg">
<g clip-path="url(#clip0_25_5)">
<path d="M83.2192 68.3433C83.2192 54.1421 94.7313 42.63 108.933 42.63H511.105C525.306 42.63 536.818 54.1421 536.818 68.3433V325.294C536.818 339.495 525.306 351.007 511.105 351.007H108.933C94.7313 351.007 83.2192 339.495 83.2192 325.294V68.3433Z" fill="white" stroke="#E1E4E5" stroke-width="4"/>
<path d="M490.993 274.958C490.993 253.788 473.831 236.626 452.66 236.626C431.49 236.626 414.328 253.788 414.328 274.958C414.328 296.129 431.49 313.291 452.66 313.291C473.831 313.291 490.993 296.129 490.993 274.958Z" fill="#0AA2C0"/>
<path fill-rule="evenodd" clip-rule="evenodd" d="M470.082 291.038V293.602C470.082 295.017 468.949 296.165 467.553 296.165H437.199C435.803 296.165 434.67 295.017 434.67 293.602V290.998C434.67 283.241 443.417 278.202 452.376 278.202C461.335 278.202 470.082 283.244 470.082 290.998M458.725 255.685C462.232 259.192 462.232 264.878 458.725 268.386C455.217 271.893 449.531 271.893 446.023 268.386C442.516 264.878 442.516 259.192 446.023 255.685C449.531 252.177 455.217 252.177 458.725 255.685Z" fill="white"/>
<path d="M432.389 95.8268H432.388C421.599 95.8268 412.853 104.573 412.853 115.362V115.362C412.853 126.151 421.599 134.897 432.388 134.897H432.389C443.177 134.897 451.923 126.151 451.923 115.362V115.362C451.923 104.573 443.177 95.8268 432.389 95.8268Z" fill="#0AA2C0"/>
<path fill-rule="evenodd" clip-rule="evenodd" d="M441.267 123.557V124.863C441.267 125.584 440.689 126.169 439.977 126.169H424.509C423.798 126.169 423.22 125.584 423.22 124.863V123.536C423.22 119.583 427.678 117.015 432.243 117.015C436.809 117.015 441.267 119.585 441.267 123.536M435.478 105.54C435.92 105.961 436.273 106.466 436.516 107.026C436.759 107.585 436.888 108.188 436.895 108.798C436.902 109.408 436.788 110.014 436.557 110.579C436.327 111.144 435.986 111.657 435.554 112.089C435.123 112.52 434.609 112.861 434.044 113.091C433.479 113.321 432.874 113.436 432.263 113.429C431.653 113.421 431.051 113.292 430.491 113.049C429.932 112.805 429.426 112.452 429.005 112.011C428.18 111.146 427.726 109.992 427.741 108.797C427.755 107.602 428.236 106.459 429.082 105.614C429.927 104.769 431.07 104.288 432.265 104.274C433.46 104.26 434.614 104.714 435.478 105.54Z" fill="white"/>
<path d="M357.935 78.1347H357.934C347.146 78.1347 338.4 86.8807 338.4 97.6694V97.6701C338.4 108.459 347.146 117.205 357.934 117.205H357.935C368.724 117.205 377.47 108.459 377.47 97.6701V97.6694C377.47 86.8807 368.724 78.1347 357.935 78.1347Z" fill="#0AA2C0"/>
<path fill-rule="evenodd" clip-rule="evenodd" d="M366.813 105.864V107.171C366.813 107.892 366.236 108.477 365.524 108.477H350.055C349.343 108.477 348.766 107.892 348.766 107.171V105.844C348.766 101.891 353.223 99.3232 357.79 99.3232C362.356 99.3232 366.813 101.892 366.813 105.844M361.025 87.8476C361.45 88.2725 361.787 88.7771 362.017 89.3324C362.247 89.8877 362.366 90.483 362.366 91.0841C362.366 91.6852 362.247 92.2804 362.017 92.8357C361.787 93.391 361.45 93.8956 361.025 94.3206C360.385 94.9609 359.569 95.397 358.681 95.5737C357.793 95.7504 356.872 95.6598 356.036 95.3134C355.199 94.9669 354.484 94.3802 353.981 93.6274C353.478 92.8746 353.21 91.9895 353.21 91.0841C353.21 90.1786 353.478 89.2936 353.981 88.5407C354.484 87.7879 355.199 87.2012 356.036 86.8548C356.872 86.5083 357.793 86.4177 358.681 86.5945C359.569 86.7712 360.385 87.2073 361.025 87.8476Z" fill="white"/>
<path d="M255.469 193.133H163.322C146.427 193.133 132.73 206.829 132.73 223.725V223.726C132.73 240.621 146.427 254.318 163.322 254.318H255.469C272.364 254.318 286.061 240.621 286.061 223.726V223.725C286.061 206.829 272.364 193.133 255.469 193.133Z" fill="white" stroke="#E1E4E5" stroke-width="4"/>
<path d="M188.237 223.637C188.237 210.104 177.267 199.134 163.734 199.134C150.201 199.134 139.231 210.104 139.231 223.637C139.231 237.169 150.201 248.14 163.734 248.14C177.267 248.14 188.237 237.169 188.237 223.637Z" fill="#0AA2C0"/>
<path fill-rule="evenodd" clip-rule="evenodd" d="M174.87 233.916V235.554C174.87 236.458 174.145 237.193 173.252 237.193H153.85C152.957 237.193 152.233 236.458 152.233 235.554V233.89C152.233 228.932 157.824 225.71 163.551 225.71C169.278 225.71 174.87 228.933 174.87 233.89M167.611 211.316C168.688 212.393 169.293 213.854 169.292 215.376C169.292 216.899 168.687 218.36 167.61 219.436C166.533 220.513 165.073 221.118 163.55 221.118C162.027 221.117 160.567 220.512 159.49 219.436C158.421 218.357 157.822 216.899 157.826 215.381C157.829 213.862 158.433 212.406 159.507 211.333C160.581 210.259 162.037 209.654 163.555 209.651C165.074 209.648 166.532 210.247 167.61 211.316H167.611Z" fill="white"/>
<path d="M259.891 212.299H195.758C194.74 212.299 193.915 213.125 193.915 214.142C193.915 215.16 194.74 215.985 195.758 215.985H259.891C260.909 215.985 261.734 215.16 261.734 214.142C261.734 213.125 260.909 212.299 259.891 212.299Z" fill="#E1E4E5"/>
<path d="M259.523 221.145H196.126C194.905 221.145 193.915 222.135 193.915 223.356C193.915 224.577 194.905 225.568 196.126 225.568H259.523C260.744 225.568 261.734 224.577 261.734 223.356C261.734 222.135 260.744 221.145 259.523 221.145Z" fill="#E1E4E5"/>
<path d="M259.891 230.728H195.758C194.74 230.728 193.915 231.554 193.915 232.571C193.915 233.589 194.74 234.414 195.758 234.414H259.891C260.909 234.414 261.734 233.589 261.734 232.571C261.734 231.554 260.909 230.728 259.891 230.728Z" fill="#E1E4E5"/>
<path d="M460.401 148.166H368.254C351.359 148.166 337.662 161.862 337.662 178.758V178.758C337.662 195.654 351.359 209.351 368.254 209.351H460.401C477.296 209.351 490.993 195.654 490.993 178.758V178.758C490.993 161.862 477.296 148.166 460.401 148.166Z" fill="white" stroke="#E1E4E5" stroke-width="4"/>
<path d="M393.17 178.669C393.17 165.137 382.199 154.166 368.667 154.166C355.134 154.166 344.163 165.137 344.163 178.669C344.163 192.202 355.134 203.173 368.667 203.173C382.199 203.173 393.17 192.202 393.17 178.669Z" fill="#0AA2C0"/>
<path fill-rule="evenodd" clip-rule="evenodd" d="M379.802 188.948V190.587C379.802 191.491 379.077 192.225 378.184 192.225H358.782C357.889 192.225 357.165 191.491 357.165 190.587V188.923C357.165 183.965 362.756 180.743 368.483 180.743C374.21 180.743 379.802 183.966 379.802 188.923M372.543 166.35C373.619 167.426 374.224 168.886 374.224 170.409C374.224 171.932 373.619 173.392 372.543 174.468C372.01 175.002 371.377 175.424 370.68 175.713C369.984 176.002 369.237 176.15 368.483 176.15C367.729 176.15 366.983 176.002 366.286 175.713C365.59 175.424 364.957 175.002 364.424 174.468C363.347 173.392 362.742 171.932 362.742 170.409C362.742 168.886 363.347 167.426 364.424 166.35C364.957 165.817 365.59 165.394 366.286 165.105C366.983 164.816 367.729 164.668 368.483 164.668C369.237 164.668 369.984 164.816 370.68 165.105C371.377 165.394 372.01 165.817 372.543 166.35Z" fill="white"/>
<path d="M464.823 167.332H400.69C399.672 167.332 398.847 168.157 398.847 169.175C398.847 170.193 399.672 171.018 400.69 171.018H464.823C465.841 171.018 466.666 170.193 466.666 169.175C466.666 168.157 465.841 167.332 464.823 167.332Z" fill="#E1E4E5"/>
<path d="M464.455 176.178H401.058C399.837 176.178 398.847 177.168 398.847 178.39C398.847 179.611 399.837 180.601 401.058 180.601H464.455C465.676 180.601 466.666 179.611 466.666 178.39C466.666 177.168 465.676 176.178 464.455 176.178Z" fill="#E1E4E5"/>
<path d="M464.823 185.761H400.69C399.672 185.761 398.847 186.586 398.847 187.604C398.847 188.622 399.672 189.447 400.69 189.447H464.823C465.841 189.447 466.666 188.622 466.666 187.604C466.666 186.586 465.841 185.761 464.823 185.761Z" fill="#E1E4E5"/>
<path d="M293.064 114.993H200.918C184.022 114.993 170.326 128.69 170.326 145.586V145.586C170.326 162.482 184.022 176.178 200.918 176.178H293.064C309.96 176.178 323.656 162.482 323.656 145.586V145.586C323.656 128.69 309.96 114.993 293.064 114.993Z" fill="white" stroke="#E1E4E5" stroke-width="4"/>
<path d="M225.833 145.497C225.833 131.964 214.862 120.994 201.33 120.994C187.797 120.994 176.827 131.964 176.827 145.497C176.827 159.03 187.797 170 201.33 170C214.862 170 225.833 159.03 225.833 145.497Z" fill="#0AA2C0"/>
<path fill-rule="evenodd" clip-rule="evenodd" d="M212.465 155.776V157.415C212.465 158.319 211.74 159.053 210.848 159.053H191.445C190.553 159.053 189.828 158.319 189.828 157.415V155.75C189.828 150.792 195.419 147.571 201.147 147.571C206.874 147.571 212.465 150.794 212.465 155.75M205.207 133.177C205.74 133.71 206.163 134.343 206.451 135.04C206.74 135.736 206.888 136.483 206.888 137.237C206.888 137.991 206.739 138.738 206.451 139.434C206.162 140.131 205.739 140.764 205.206 141.297C204.673 141.83 204.04 142.253 203.343 142.541C202.646 142.83 201.9 142.978 201.146 142.978C200.392 142.978 199.645 142.83 198.949 142.541C198.252 142.252 197.619 141.829 197.086 141.296C196.009 140.219 195.404 138.759 195.405 137.236C195.405 135.713 196.01 134.253 197.087 133.176C198.163 132.099 199.624 131.495 201.147 131.495C202.67 131.495 204.13 132.1 205.207 133.177Z" fill="white"/>
<path d="M297.486 134.159H233.354C232.336 134.159 231.511 134.984 231.511 136.002C231.511 137.02 232.336 137.845 233.354 137.845H297.486C298.504 137.845 299.33 137.02 299.33 136.002C299.33 134.984 298.504 134.159 297.486 134.159Z" fill="#E1E4E5"/>
<path d="M297.118 143.005H233.722C232.501 143.005 231.511 143.995 231.511 145.217C231.511 146.438 232.501 147.428 233.722 147.428H297.118C298.34 147.428 299.33 146.438 299.33 145.217C299.33 143.995 298.34 143.005 297.118 143.005Z" fill="#E1E4E5"/>
<path d="M297.486 152.589H233.354C232.336 152.589 231.511 153.414 231.511 154.432C231.511 155.45 232.336 156.275 233.354 156.275H297.486C298.504 156.275 299.33 155.45 299.33 154.432C299.33 153.414 298.504 152.589 297.486 152.589Z" fill="#E1E4E5"/>
<path d="M119.583 68.183C119.583 70.9749 117.472 73.0956 115.038 73.0956C112.605 73.0956 110.494 70.9749 110.494 68.183C110.494 65.3917 112.605 63.2704 115.038 63.2704C117.472 63.2704 119.583 65.3917 119.583 68.183ZM138.748 68.183C138.748 70.8247 136.458 73.0956 133.468 73.0956C130.477 73.0956 128.186 70.8247 128.186 68.183C128.186 65.542 130.477 63.2704 133.468 63.2704C136.458 63.2704 138.748 65.542 138.748 68.183Z" fill="white" stroke="#E1E4E5" stroke-width="4"/>
<path d="M151.528 73.0956C154.241 73.0956 156.441 70.8961 156.441 68.183C156.441 65.4698 154.241 63.2704 151.528 63.2704C148.815 63.2704 146.615 65.4698 146.615 68.183C146.615 70.8961 148.815 73.0956 151.528 73.0956Z" fill="white" stroke="#E1E4E5" stroke-width="4"/>
<path opacity="0.76" fill-rule="evenodd" clip-rule="evenodd" d="M199.812 272.747L238.882 333.932H160.743L199.812 272.747Z" fill="url(#paint0_linear_25_5)"/>
<path opacity="0.76" fill-rule="evenodd" clip-rule="evenodd" d="M325.237 188.972L342.991 216.59H307.483L325.237 188.972Z" fill="url(#paint1_linear_25_5)"/>
<path d="M58.7252 311.36C54.3343 315.197 46.7813 313.742 46.7813 313.742C46.7813 313.742 46.3516 306.066 50.7466 302.232C55.1375 298.395 62.6871 299.847 62.6871 299.847C62.6871 299.847 63.1161 307.523 58.7252 311.36Z" fill="url(#paint2_linear_25_5)"/>
<path d="M508.565 59.886C508.181 61.3205 509.032 62.7951 510.467 63.1794C511.901 63.5638 513.376 62.7125 513.76 61.278C514.145 59.8435 513.293 58.3689 511.859 57.9846C510.424 57.6002 508.95 58.4515 508.565 59.886Z" fill="#E1E4E5"/>
<path d="M497.586 80.9296C497.202 82.3641 498.053 83.8386 499.488 84.223C500.922 84.6074 502.397 83.7561 502.781 82.3216C503.166 80.887 502.314 79.4125 500.88 79.0281C499.445 78.6438 497.971 79.4951 497.586 80.9296Z" fill="#E1E4E5"/>
<path d="M559.803 43.874C559.418 45.3085 560.269 46.783 561.704 47.1674C563.139 47.5518 564.613 46.7005 564.997 45.266C565.382 43.8314 564.531 42.3569 563.096 41.9725C561.661 41.5882 560.187 42.4395 559.803 43.874Z" fill="#E1E4E5"/>
<path d="M548.212 217.692C547.96 218.634 548.519 219.603 549.462 219.856C550.404 220.108 551.373 219.549 551.625 218.606C551.878 217.664 551.319 216.695 550.376 216.443C549.434 216.19 548.465 216.749 548.212 217.692Z" fill="#E1E4E5"/>
<path d="M522.319 358.151C521.935 359.586 522.786 361.06 524.221 361.445C525.655 361.829 527.13 360.978 527.514 359.543C527.899 358.109 527.047 356.634 525.613 356.25C524.178 355.865 522.704 356.717 522.319 358.151Z" fill="#E1E4E5"/>
<path d="M403.488 327.621L397.033 334.076C396.798 334.311 396.798 334.692 397.033 334.927L397.034 334.927C397.269 335.162 397.649 335.162 397.884 334.927L404.34 328.472C404.574 328.237 404.574 327.856 404.34 327.621L404.339 327.621C404.104 327.386 403.723 327.386 403.488 327.621Z" fill="#E1E4E5"/>
<path d="M402.856 332.243L400.994 334.104C400.759 334.339 400.76 334.72 400.994 334.955L400.995 334.956C401.23 335.191 401.611 335.191 401.846 334.956L403.707 333.094C403.942 332.859 403.942 332.478 403.707 332.243L403.707 332.243C403.472 332.008 403.091 332.008 402.856 332.243Z" fill="#E1E4E5"/>
<path d="M496.811 333.17C496.75 333.081 501.252 329.874 506.871 326.019C512.489 322.158 517.1 319.103 517.161 319.192C517.223 319.282 512.719 322.482 507.101 326.343C501.476 330.206 496.873 333.26 496.811 333.17ZM515.964 299.285H516.029C516.411 304.472 520.436 304.551 520.436 304.551C520.436 304.551 515.998 304.634 515.998 310.627C515.998 304.634 511.559 304.551 511.559 304.551C511.559 304.551 515.582 304.472 515.964 299.285Z" fill="#E1E4E5"/>
<path d="M308.812 274.118L293.047 331.75L298.672 325.277C296.592 326.385 294.18 327.234 291.509 327.837C288.839 328.44 285.934 328.784 282.895 328.945C279.855 329.104 276.692 329.08 273.443 328.945C270.207 328.809 266.896 328.563 263.536 328.28H263.524C258.564 327.861 254.207 331.529 253.777 336.489C253.37 341.214 256.731 345.398 261.333 346.15C264.803 346.703 268.323 347.22 271.942 347.638C275.56 348.057 279.264 348.364 283.104 348.451C286.943 348.537 290.919 348.389 295.029 347.799C299.127 347.208 303.386 346.137 307.545 344.34C310.203 343.196 312.098 341.005 312.96 338.458L313.157 337.854L332.072 281.17C334.202 274.795 330.755 267.915 324.38 265.787C318.006 263.657 311.126 267.103 308.997 273.478C308.936 273.687 308.862 273.921 308.812 274.118Z" fill="#F8AE9D"/>
<path d="M343.849 353.288C344.058 354.912 344.772 356.155 345.448 356.057C346.113 355.97 346.495 354.579 346.286 352.968C346.076 351.343 345.363 350.1 344.685 350.199C344.009 350.285 343.64 351.675 343.849 353.288Z" fill="#B55E63"/>
<path fill-rule="evenodd" clip-rule="evenodd" d="M316.811 333.125C316.811 333.098 316.805 333.072 316.792 333.048C316.779 333.024 316.761 333.004 316.739 332.988C316.531 332.843 316.326 332.692 316.124 332.537C314.699 331.486 314.445 329.054 314.025 325.042C313.885 323.709 313.727 322.2 313.502 320.51C312.603 313.772 311.939 309.746 309.908 300.759C309.755 300.082 309.593 299.403 309.429 298.723C308.837 296.256 308.238 293.763 308.092 291.252C308.08 291.057 308.081 290.862 308.094 290.667C308.169 289.767 308.218 288.866 308.243 287.953C308.268 287.228 308.281 286.503 308.281 285.777V285.114C308.277 284.062 308.266 283.009 308.25 281.957C308.147 274.363 308.09 270.104 313.502 266.356C314.9 265.38 316.674 264.454 318.897 263.504C320.695 262.741 322.781 261.966 325.229 261.153C326.216 260.828 327.277 260.49 328.401 260.14L331.049 259.414L358.403 251.837C358.675 251.762 358.957 251.736 359.238 251.748C360.636 251.821 362.033 251.912 363.428 252.02C363.849 252.052 364.294 252.085 364.758 252.123C367.081 252.311 369.941 252.574 373.051 252.949C373.962 253.053 374.905 253.178 375.861 253.305L376.098 253.337C379.271 253.762 381.831 254.837 383.854 256.388C387.439 259.14 389.375 263.416 390.087 268.382C390.486 271.17 390.511 274.172 390.236 277.248C390.124 278.475 389.97 279.697 389.774 280.913C389.598 282.024 389.386 283.129 389.137 284.226C388.408 287.505 387.771 290.804 387.227 294.119L387.002 295.469C386.956 295.778 386.908 296.09 386.859 296.404C386.802 296.775 386.743 297.147 386.689 297.52C385.19 307.5 384.454 317.192 384.604 324.008V324.016L384.641 325.234C384.816 329.824 385.341 334.964 386.327 340.679C386.382 340.967 386.433 341.255 386.484 341.545C386.527 341.784 386.57 342.025 386.614 342.267C386.643 342.42 386.649 342.571 386.634 342.717C389.555 345.557 390.937 349.192 388.364 352.598C387.132 354.228 384.004 355.115 381.963 355.194L333.023 357.079C325.63 357.363 318.12 354.123 317.915 346.727C317.887 345.709 317.915 344.613 318.014 343.435C318.014 343.433 318.179 343.264 318.506 342.964C317.698 342.69 317.074 341.956 317.074 341.029C317.067 339.832 317.046 338.636 317.011 337.439C316.981 336.251 316.931 335.063 316.861 333.875C316.848 333.613 316.836 333.363 316.811 333.125Z" fill="white"/>
<mask id="mask0_25_5" style="mask-type:luminance" maskUnits="userSpaceOnUse" x="308" y="251" width="83" height="107">
<path fill-rule="evenodd" clip-rule="evenodd" d="M316.811 333.125C316.811 333.098 316.805 333.072 316.792 333.048C316.779 333.024 316.761 333.004 316.739 332.988C316.531 332.843 316.326 332.692 316.124 332.537C314.699 331.486 314.445 329.054 314.025 325.042C313.885 323.709 313.727 322.2 313.502 320.51C312.603 313.772 311.939 309.746 309.908 300.759C309.755 300.082 309.593 299.403 309.429 298.723C308.837 296.256 308.238 293.763 308.092 291.252C308.08 291.057 308.081 290.862 308.094 290.667C308.169 289.767 308.218 288.866 308.243 287.953C308.268 287.228 308.281 286.503 308.281 285.777V285.114C308.277 284.062 308.266 283.009 308.25 281.957C308.147 274.363 308.09 270.104 313.502 266.356C314.9 265.38 316.674 264.454 318.897 263.504C320.695 262.741 322.781 261.966 325.229 261.153C326.216 260.828 327.277 260.49 328.401 260.14L331.049 259.414L358.403 251.837C358.675 251.762 358.957 251.736 359.238 251.748C360.636 251.821 362.033 251.912 363.428 252.02C363.849 252.052 364.294 252.085 364.758 252.123C367.081 252.311 369.941 252.574 373.051 252.949C373.962 253.053 374.905 253.178 375.861 253.305L376.098 253.337C379.271 253.762 381.831 254.837 383.854 256.388C387.439 259.14 389.375 263.416 390.087 268.382C390.486 271.17 390.511 274.172 390.236 277.248C390.124 278.475 389.97 279.697 389.774 280.913C389.598 282.024 389.386 283.129 389.137 284.226C388.408 287.505 387.771 290.804 387.227 294.119L387.002 295.469C386.956 295.778 386.908 296.09 386.859 296.404C386.802 296.775 386.743 297.147 386.689 297.52C385.19 307.5 384.454 317.192 384.604 324.008V324.016L384.641 325.234C384.816 329.824 385.341 334.964 386.327 340.679C386.382 340.967 386.433 341.255 386.484 341.545C386.527 341.784 386.57 342.025 386.614 342.267C386.643 342.42 386.649 342.571 386.634 342.717C389.555 345.557 390.937 349.192 388.364 352.598C387.132 354.228 384.004 355.115 381.963 355.194L333.023 357.079C325.63 357.363 318.12 354.123 317.915 346.727C317.887 345.709 317.915 344.613 318.014 343.435C318.014 343.433 318.179 343.264 318.506 342.964C317.698 342.69 317.074 341.956 317.074 341.029C317.067 339.832 317.046 338.636 317.011 337.439C316.981 336.251 316.931 335.063 316.861 333.875C316.848 333.613 316.836 333.363 316.811 333.125Z" fill="#E1E4E5"/>
</mask>
<g mask="url(#mask0_25_5)">
<path d="M316.811 333.125L314.119 333.408L314.105 333.267V333.125H316.811ZM316.124 332.537L317.732 330.359L317.75 330.374L317.77 330.389L316.124 332.537ZM308.094 290.667L305.393 290.481L305.395 290.462L305.397 290.443L308.094 290.667ZM308.243 287.953L305.538 287.879V287.87L305.539 287.86L308.243 287.953ZM308.281 285.114L310.988 285.107V285.114H308.281ZM313.502 266.356L315.05 268.576L315.043 268.58L313.502 266.356ZM318.897 263.504L317.833 261.015L317.84 261.012L318.897 263.504ZM325.229 261.153L324.376 258.584L324.382 258.582L325.229 261.153ZM328.401 260.14L327.597 257.556L327.641 257.542L327.686 257.529L328.401 260.14ZM331.049 259.414L331.772 262.023L331.764 262.025L331.049 259.414ZM359.238 251.748L359.123 254.452H359.114L359.238 251.748ZM362.647 251.961L362.835 249.261L362.847 249.262L362.859 249.262L362.647 251.961ZM364.758 252.123L364.54 254.821H364.537L364.758 252.123ZM373.051 252.949L372.745 255.638L372.736 255.637L372.727 255.636L373.051 252.949ZM376.098 253.337L376.455 250.654L376.458 250.654L376.098 253.337ZM383.854 256.388L385.501 254.24L385.502 254.241L383.854 256.388ZM390.236 277.248L392.932 277.489L392.932 277.498L390.236 277.248ZM389.774 280.913L387.101 280.488L387.102 280.482L387.103 280.477L389.774 280.913ZM389.137 284.226L386.496 283.636L386.498 283.628L389.137 284.226ZM387.227 294.119L389.897 294.56V294.563L387.227 294.119ZM387.002 295.469L384.324 295.073L384.328 295.049L384.332 295.025L387.002 295.469ZM386.689 297.52L389.368 297.909L389.367 297.916L389.366 297.922L386.689 297.52ZM384.604 324.008L381.898 324.09L381.898 324.079V324.068L384.604 324.008ZM384.641 325.234L381.936 325.337V325.328L381.936 325.318L384.641 325.234ZM386.327 340.679L383.668 341.185L383.664 341.162L383.66 341.139L386.327 340.679ZM386.614 342.267L383.955 342.771L383.954 342.761L386.614 342.267ZM386.634 342.717L384.747 344.657L383.811 343.746L383.941 342.446L386.634 342.717ZM318.014 343.435H320.721V343.55L320.712 343.664L318.014 343.435ZM318.506 342.964L319.377 340.402L323.706 341.874L320.333 344.961L318.506 342.964ZM317.074 341.029L319.78 341.003L319.78 341.016V341.029H317.074ZM317.011 337.439L314.306 337.531L314.306 337.523V337.514L317.011 337.439ZM316.861 333.875L314.16 334.044L314.159 334.024L314.157 334.004L316.861 333.875ZM318.282 330.764C318.663 331.028 318.975 331.381 319.19 331.793C319.405 332.204 319.518 332.661 319.518 333.125H314.105C314.105 333.974 314.526 334.747 315.196 335.212L318.282 330.764ZM317.77 330.389C318.026 330.584 318.207 330.712 318.282 330.764L315.197 335.212C314.953 335.043 314.714 334.867 314.479 334.686L317.77 330.389ZM316.717 324.76C316.934 326.835 317.087 328.244 317.332 329.275C317.578 330.316 317.8 330.41 317.732 330.359L314.517 334.715C313.025 333.614 312.406 331.967 312.064 330.525C311.721 329.075 311.536 327.262 311.333 325.324L316.717 324.76ZM316.185 320.152C316.415 321.885 316.577 323.428 316.717 324.76L311.333 325.324C311.193 323.989 311.039 322.516 310.819 320.867L316.185 320.152ZM312.548 300.163C314.597 309.229 315.276 313.335 316.185 320.152L310.819 320.867C309.931 314.21 309.281 310.262 307.268 301.356L312.548 300.163ZM312.061 298.091C312.223 298.769 312.391 299.465 312.548 300.163L307.268 301.356C307.12 300.699 306.961 300.038 306.797 299.355L312.061 298.091ZM310.794 291.095C310.924 293.324 311.458 295.581 312.061 298.091L306.797 299.355C306.215 296.929 305.552 294.201 305.39 291.409L310.794 291.095ZM310.794 290.853C310.79 290.921 310.789 291 310.794 291.095L305.39 291.409C305.371 291.1 305.372 290.79 305.393 290.481L310.794 290.853ZM310.949 288.027C310.923 288.983 310.87 289.938 310.791 290.892L305.397 290.443C305.467 289.592 305.514 288.742 305.538 287.879L310.949 288.027ZM310.988 285.777C310.988 286.534 310.974 287.29 310.949 288.046L305.539 287.86C305.562 287.166 305.575 286.472 305.575 285.777H310.988ZM310.988 285.615V285.777H305.575V285.615H310.988ZM310.988 285.114V285.615H305.575V285.114H310.988ZM310.957 281.92C310.97 282.912 310.984 283.977 310.988 285.107L305.575 285.122C305.572 284.025 305.558 282.989 305.544 281.994L310.957 281.92ZM315.043 268.58C312.821 270.119 311.898 271.596 311.426 273.399C310.89 275.449 310.903 277.996 310.957 281.92L305.544 281.994C305.494 278.323 305.427 274.944 306.189 272.029C307.016 268.868 308.77 266.341 311.96 264.131L315.043 268.58ZM319.961 265.993C317.828 266.904 316.239 267.746 315.05 268.576L311.953 264.135C313.561 263.014 315.52 262.005 317.833 261.015L319.961 265.993ZM326.082 263.721C323.684 264.518 321.669 265.268 319.954 265.996L317.84 261.012C319.722 260.214 321.878 259.414 324.376 258.584L326.082 263.721ZM329.206 262.724C328.16 263.049 327.117 263.382 326.076 263.723L324.382 258.582C325.387 258.251 326.463 257.909 327.597 257.556L329.206 262.724ZM331.764 262.025L329.116 262.75L327.686 257.529L330.334 256.804L331.764 262.025ZM359.126 254.446L331.772 262.023L330.326 256.806L357.681 249.229L359.126 254.446ZM359.114 254.452C359.107 254.452 359.1 254.452 359.093 254.452C359.095 254.452 359.106 254.451 359.126 254.446L357.681 249.229C358.227 249.079 358.794 249.017 359.361 249.044L359.114 254.452ZM362.46 254.661C361.348 254.58 360.236 254.511 359.123 254.452L359.353 249.044C359.981 249.071 361.215 249.149 362.835 249.261L362.46 254.661ZM363.225 254.72L362.436 254.659L362.859 249.262C363.103 249.282 363.359 249.301 363.631 249.321L363.225 254.72ZM364.537 254.821C364.084 254.784 363.647 254.751 363.225 254.72L363.631 249.321C364.051 249.353 364.505 249.387 364.98 249.426L364.537 254.821ZM372.727 255.636C369.662 255.266 366.84 255.007 364.54 254.821L364.976 249.425C367.322 249.615 370.22 249.881 373.375 250.262L372.727 255.636ZM375.504 255.988C374.585 255.863 373.665 255.746 372.745 255.638L373.358 250.26C374.298 250.367 375.266 250.496 376.217 250.622L375.504 255.988ZM375.742 256.02L375.504 255.988L376.217 250.622L376.455 250.654L375.742 256.02ZM382.208 258.536C380.597 257.302 378.492 256.388 375.739 256.02L376.458 250.654C380.049 251.135 383.065 252.373 385.501 254.24L382.208 258.536ZM387.407 268.765C386.758 264.234 385.048 260.716 382.206 258.535L385.502 254.241C389.83 257.562 391.992 262.599 392.766 267.997L387.407 268.765ZM387.541 277.008C387.8 274.094 387.771 271.307 387.407 268.765L392.766 267.997C393.201 271.034 393.222 274.25 392.932 277.489L387.541 277.008ZM387.103 280.477C387.292 279.321 387.434 278.159 387.541 276.998L392.932 277.498C392.814 278.786 392.652 280.07 392.446 281.348L387.103 280.477ZM386.498 283.628C386.734 282.587 386.935 281.533 387.101 280.488L392.448 281.337C392.262 282.507 392.038 283.67 391.777 284.826L386.498 283.628ZM384.556 293.677C385.109 290.313 385.756 286.964 386.496 283.636L391.778 284.817C391.061 288.047 390.433 291.295 389.897 294.56L384.556 293.677ZM384.332 295.025L384.556 293.675L389.897 294.563L389.671 295.914L384.332 295.025ZM384.184 295.989C384.233 295.674 384.28 295.372 384.324 295.073L389.679 295.866C389.632 296.186 389.582 296.507 389.533 296.818L384.184 295.989ZM384.011 297.131C384.067 296.743 384.127 296.358 384.184 295.989L389.533 296.818C389.476 297.192 389.42 297.552 389.368 297.909L384.011 297.131ZM381.898 324.068C381.744 317.05 382.499 307.195 384.013 297.118L389.366 297.922C387.882 307.805 387.164 317.335 387.31 323.949L381.898 324.068ZM381.898 324.098V324.09L387.309 323.926V323.935L381.898 324.098ZM381.936 325.318L381.898 324.098L387.309 323.934L387.346 325.149L381.936 325.318ZM383.66 341.139C382.654 335.315 382.116 330.055 381.936 325.337L387.346 325.131C387.515 329.592 388.026 334.612 388.995 340.219L383.66 341.139ZM383.82 342.018C383.767 341.725 383.719 341.453 383.668 341.185L388.986 340.173C389.045 340.48 389.099 340.786 389.15 341.073L383.82 342.018ZM383.954 342.761C383.906 342.506 383.861 342.255 383.82 342.018L389.15 341.073C389.192 341.313 389.233 341.543 389.275 341.773L383.954 342.761ZM383.941 342.446C383.931 342.558 383.936 342.668 383.955 342.771L389.274 341.763C389.351 342.173 389.368 342.585 389.328 342.987L383.941 342.446ZM388.522 340.777C390.21 342.419 391.653 344.475 392.197 346.838C392.768 349.317 392.287 351.896 390.523 354.23L386.205 350.967C387.014 349.895 387.129 348.953 386.922 348.053C386.688 347.037 385.979 345.855 384.747 344.657L388.522 340.777ZM390.523 354.23C389.445 355.657 387.777 356.515 386.396 357.02C384.95 357.549 383.379 357.848 382.067 357.898L381.859 352.489C382.588 352.461 383.602 352.277 384.538 351.936C385.54 351.569 386.052 351.168 386.205 350.967L390.523 354.23ZM382.067 357.898L333.126 359.784L332.919 354.374L381.859 352.489L382.067 357.898ZM333.126 359.784C329.054 359.94 324.771 359.141 321.379 357.103C317.891 355.006 315.342 351.566 315.21 346.802L320.621 346.652C320.694 349.284 322.001 351.161 324.167 352.463C326.43 353.823 329.598 354.502 332.919 354.374L333.126 359.784ZM315.21 346.802C315.178 345.681 315.21 344.483 315.318 343.207L320.712 343.664C320.625 344.657 320.595 345.655 320.621 346.652L315.21 346.802ZM315.308 343.435C315.308 342.965 315.43 342.503 315.663 342.095C315.732 341.974 315.796 341.884 315.82 341.851C315.875 341.775 315.922 341.719 315.936 341.702C315.972 341.658 316.002 341.626 316.01 341.617L316.061 341.562L316.117 341.504L316.247 341.375C316.35 341.273 316.495 341.137 316.678 340.968L320.333 344.961C320.191 345.091 320.09 345.189 320.029 345.248C319.998 345.278 319.98 345.296 319.974 345.302L319.984 345.292L320.023 345.25C320.154 345.104 320.269 344.946 320.366 344.776C320.4 344.716 320.464 344.599 320.526 344.444C320.555 344.37 320.612 344.197 320.639 344.098C320.67 343.961 320.714 343.63 320.721 343.435H315.308ZM319.78 341.029C319.78 340.863 319.719 340.704 319.631 340.589C319.567 340.503 319.478 340.438 319.377 340.402L317.635 345.527C315.878 344.93 314.367 343.265 314.367 341.029H319.78ZM319.716 337.347C319.755 338.487 319.768 339.72 319.78 341.003L314.367 341.055C314.36 339.88 314.34 338.706 314.306 337.531L319.716 337.347ZM319.563 333.707C319.628 334.748 319.679 335.983 319.717 337.365L314.306 337.514C314.268 336.171 314.22 335.003 314.16 334.044L319.563 333.707ZM319.503 332.842C319.538 333.169 319.553 333.494 319.565 333.747L314.157 334.004C314.15 333.805 314.138 333.606 314.119 333.408L319.503 332.842Z" fill="#E1E4E5"/>
</g>
<path d="M358.212 253.086C358.212 253.086 355.763 262.352 346.508 264.924C334.743 268.186 332.971 264.236 332.971 264.236C333.266 262.549 333.365 260.9 333.291 259.153C333.261 258.474 333.208 257.797 333.13 257.122C332.921 255.227 332.528 253.159 331.974 250.796C331.851 250.243 331.703 249.664 331.556 249.074L331.543 249C339.592 245.972 345.905 241.431 349.77 234.711L350.914 233.813L351.689 233.198L351.911 233.665L351.948 235.228C352.108 242.576 353.351 246.92 358.212 253.086ZM361.492 267.746L343.814 332.927L350.117 325.607C347.786 326.86 345.082 327.813 342.092 328.501C339.102 329.176 335.837 329.574 332.44 329.743C329.032 329.924 325.479 329.888 321.844 329.743C318.207 329.586 314.5 329.321 310.732 328.995H310.708C305.147 328.513 300.255 332.673 299.777 338.281C299.322 343.623 303.09 348.362 308.257 349.207C312.144 349.834 316.103 350.425 320.157 350.895C324.211 351.365 328.374 351.727 332.68 351.823C336.985 351.92 341.447 351.751 346.051 351.076C350.656 350.4 355.428 349.195 360.093 347.169C363.082 345.866 365.2 343.394 366.169 340.524L366.396 339.848L387.589 275.73C389.97 268.518 386.118 260.74 378.966 258.328C371.826 255.928 364.099 259.811 361.707 267.023C361.636 267.252 361.552 267.529 361.492 267.746Z" fill="#F8AE9D"/>
<path fill-rule="evenodd" clip-rule="evenodd" d="M153.272 357.951V354.539C153.272 352.581 155.24 350.994 157.656 350.984H462.257C464.686 350.984 466.64 352.581 466.64 354.539V357.951C466.64 359.918 464.673 361.506 462.257 361.506H448.618C447.695 361.506 446.81 361.872 446.158 362.525C445.505 363.177 445.138 364.062 445.138 364.985C445.138 365.592 444.142 366.081 442.912 366.081H168.755C167.536 366.081 166.539 365.592 166.539 364.985C166.539 364.062 166.173 363.177 165.52 362.525C164.868 361.872 163.983 361.506 163.06 361.506H157.656C155.227 361.506 153.272 359.918 153.272 357.951Z" fill="white"/>
<path d="M157.656 350.984L157.65 349.631H157.656V350.984ZM154.626 354.539V357.951H151.919V354.539H154.626ZM157.661 352.338C155.704 352.345 154.626 353.583 154.626 354.539H151.919C151.919 351.579 154.774 349.642 157.65 349.631L157.661 352.338ZM462.257 352.338H157.656V349.631H462.257V352.338ZM465.287 354.539C465.287 353.577 464.214 352.338 462.257 352.338V349.631C465.158 349.631 467.994 351.585 467.994 354.539H465.287ZM465.287 357.951V354.539H467.994V357.951H465.287ZM462.257 360.152C464.207 360.152 465.287 358.918 465.287 357.951H467.994C467.994 360.918 465.14 362.859 462.257 362.859V360.152ZM448.618 360.152H462.257V362.859H448.618V360.152ZM442.911 364.727C443.366 364.727 443.71 364.634 443.89 364.546C443.979 364.501 443.977 364.484 443.937 364.531C443.89 364.585 443.785 364.743 443.785 364.985H446.492C446.492 366.088 445.624 366.709 445.083 366.975C444.457 367.282 443.687 367.434 442.911 367.434V364.727ZM168.755 364.727H442.911V367.434H168.755V364.727ZM167.893 364.985C167.893 364.743 167.788 364.586 167.741 364.531C167.702 364.485 167.7 364.503 167.788 364.547C167.967 364.635 168.307 364.727 168.755 364.727V367.434C167.983 367.434 167.216 367.282 166.591 366.974C166.053 366.709 165.186 366.087 165.186 364.985H167.893ZM157.656 360.152H163.06V362.859H157.656V360.152ZM154.626 357.951C154.626 358.921 155.696 360.152 157.656 360.152V362.859C154.757 362.859 151.919 360.916 151.919 357.951H154.626ZM165.186 364.985C165.186 364.706 165.131 364.43 165.024 364.172C164.917 363.914 164.761 363.679 164.563 363.482C164.366 363.284 164.131 363.128 163.873 363.021C163.615 362.914 163.339 362.859 163.06 362.859V360.152C163.694 360.152 164.323 360.277 164.909 360.52C165.496 360.763 166.028 361.119 166.477 361.568C166.926 362.017 167.282 362.549 167.525 363.136C167.768 363.722 167.893 364.351 167.893 364.985H165.186ZM448.618 362.859C448.339 362.859 448.062 362.914 447.804 363.021C447.546 363.128 447.312 363.284 447.114 363.482C446.917 363.679 446.76 363.914 446.654 364.172C446.547 364.43 446.492 364.706 446.492 364.985H443.785C443.785 363.703 444.294 362.474 445.201 361.568C446.107 360.662 447.336 360.152 448.618 360.152V362.859Z" fill="#E1E4E5"/>
<path d="M190.139 266.377L204.414 326.754L204.796 328.341L205.756 332.402C205.957 333.257 206.441 334.018 207.129 334.563C207.817 335.108 208.668 335.405 209.546 335.405H305.723C308.234 335.405 310.105 333.055 309.526 330.606L293.909 264.58C293.708 263.726 293.224 262.964 292.536 262.419C291.848 261.874 290.997 261.577 290.119 261.577H193.942C191.419 261.59 189.56 263.94 190.139 266.377Z" fill="#0AA2C0"/>
<path d="M236.867 301.082C237.322 305.242 241.063 308.601 245.223 308.601C249.383 308.601 252.374 305.229 251.918 301.082C251.463 296.923 247.722 293.563 243.561 293.563C239.402 293.563 236.412 296.923 236.867 301.082Z" fill="white"/>
<path d="M286.292 261.589L302.918 335.416H305.723C308.235 335.416 310.093 333.066 309.514 330.617L293.897 264.591C293.695 263.737 293.212 262.975 292.524 262.431C291.836 261.886 290.984 261.589 290.107 261.589H286.292ZM258.502 334.819L261.139 349.578H252.424L249.786 334.819H258.502Z" fill="#31446C"/>
<path d="M273.256 348.245L271.286 345.476C270.938 344.989 270.478 344.592 269.945 344.318C269.412 344.044 268.821 343.901 268.222 343.901H241.799C241.113 343.899 240.44 344.087 239.854 344.443C239.268 344.799 238.791 345.31 238.477 345.919L237.147 348.466C236.52 349.661 237.394 351.076 238.735 351.076H271.791C273.243 351.076 274.093 349.427 273.256 348.245Z" fill="#31446C"/>
<path fill-rule="evenodd" clip-rule="evenodd" d="M343.213 234.531V245.275L351.068 238.922C351.068 238.922 353.483 228.629 355.446 220.984C356.678 216.19 359.678 199.964 347.6 200.725C337.705 183.207 308.89 194.049 308.661 215.45C314.176 246.541 309.507 256.415 309.507 256.415C325.801 257.355 334.076 249.785 343.213 234.531Z" fill="#31446C"/>
<path fill-rule="evenodd" clip-rule="evenodd" d="M331.793 230.453L333.136 239.821L325.492 235.263C325.492 235.263 322.1 226.589 319.433 220.168C317.76 216.142 313.116 202.368 323.744 201.522C330.183 185.011 356.664 190.864 359.539 209.497C358.614 237.298 363.919 245.325 363.919 245.325C349.829 248.18 341.667 242.613 331.793 230.453Z" fill="#31446C"/>
<path d="M327.371 251.209C327.371 251.209 354.004 248.615 352.132 232.053C350.26 215.491 352.434 204.003 335.353 204.96C318.271 205.917 315.681 212.608 314.964 218.287C314.246 223.967 320.398 251.457 327.371 251.209Z" fill="#F8AE9D"/>
<path fill-rule="evenodd" clip-rule="evenodd" d="M351.195 222.824C347.821 223.37 348.23 225.565 347.313 225.373C342.653 224.4 323.791 225.684 321.363 215.493C318.341 221.86 317.602 223.425 310.948 225.134V206.478L353.035 202.511C353.035 202.511 352.382 222.63 351.195 222.824Z" fill="#31446C"/>
<path d="M510.801 225.568L499.454 236.904L493.942 231.408M154.013 167.332L142.666 178.668L137.154 173.172M172.442 272.747L161.095 284.083L155.583 278.586M407.598 226.305L396.251 237.641L390.738 232.145M129.687 312.554L118.34 323.89L112.827 318.393M162.122 109.833L150.775 121.169L145.262 115.673M403.912 103.198L392.565 114.535L387.053 109.039" stroke="#E1E4E5" stroke-width="4" stroke-linecap="round" stroke-linejoin="round"/>
</g>
<defs>
<linearGradient id="paint0_linear_25_5" x1="201.478" y1="368.235" x2="200.001" y2="206.18" gradientUnits="userSpaceOnUse">
<stop stop-color="white"/>
<stop offset="1" stop-color="#EEEEEE"/>
</linearGradient>
<linearGradient id="paint1_linear_25_5" x1="325.994" y1="232.073" x2="325.332" y2="158.925" gradientUnits="userSpaceOnUse">
<stop stop-color="white"/>
<stop offset="1" stop-color="#EEEEEE"/>
</linearGradient>
<linearGradient id="paint2_linear_25_5" x1="41.3876" y1="324.288" x2="74.3663" y2="280.353" gradientUnits="userSpaceOnUse">
<stop stop-color="white"/>
<stop offset="1" stop-color="#EEEEEE"/>
</linearGradient>
<clipPath id="clip0_25_5">
<rect width="609" height="406" fill="white"/>
</clipPath>
</defs>
</svg>
