<svg width="559" height="373" viewBox="0 0 559 373" fill="none" xmlns="http://www.w3.org/2000/svg">
<g clip-path="url(#clip0_26_342)">
<path d="M230.807 210.333C250.376 204.385 270.8 201.411 291.253 200.823C301.451 200.528 311.677 200.882 321.786 202.089C330.981 203.207 340.324 204.857 349.107 207.919C356.769 210.569 364.904 215.634 364.167 224.851C364.197 224.585 364.226 224.35 364.226 224.085L364.403 222.936C366.436 210.893 368.5 198.879 370.533 186.836C370.798 185.54 370.828 185.334 370.621 186.188C370.68 185.952 370.739 185.687 370.798 185.452C369.295 190.84 365.759 195.228 362.31 199.497C358.921 203.679 355.414 207.89 352.997 212.719C351.759 215.222 350.846 217.636 350.256 220.345C348.547 228.237 347.427 236.481 346.101 244.432C345.01 250.91 343.596 257.506 343.035 264.073C342.594 269.197 344.067 274.026 347.515 277.883C354.677 285.892 366.171 288.101 376.457 288.13C387.214 288.13 398.119 286.216 408.787 288.366C414.24 289.485 419.544 291.752 423.376 295.875C427.237 300.026 430.921 306.24 430.508 312.099C430.537 311.834 430.567 311.599 430.567 311.334C431.01 308.448 431.481 305.591 431.923 302.706C433.721 292.488 435.489 282.241 437.287 272.023C437.257 272.171 437.228 272.288 437.198 272.435C437.257 272.2 437.316 271.935 437.375 271.699C434.929 281.122 423.877 282.418 415.802 282.889C415.595 282.889 414.446 289.868 414.623 288.984C413.739 293.902 412.884 298.819 412.059 303.766C411.233 308.684 410.379 313.63 409.613 318.548C409.524 319.166 408.787 324.702 408.728 324.702C413.68 324.408 418.897 324.143 423.347 321.787C425.233 320.786 426.972 319.402 428.298 317.694C430.331 315.044 430.714 311.863 431.304 308.654C433.102 298.819 434.781 288.954 436.373 279.09C436.904 275.763 437.847 272.229 437.699 268.814C437.581 266.34 436.727 263.955 435.666 261.747C433.573 257.477 430.685 253.501 426.706 250.822C418.631 245.433 408.198 245.286 398.855 245.698C388.983 246.14 378.844 247.318 369.177 244.579C363.99 243.107 358.892 240.545 355.149 236.599C351.405 232.654 349.755 227.677 350.197 222.259C350.168 222.524 350.138 222.76 350.138 223.025C350.875 216.164 349.814 222.318 346.955 241.458C343.33 260.48 342.299 266.605 343.861 259.891C343.802 260.127 343.743 260.392 343.684 260.628C345.276 254.385 348.959 249.114 352.938 244.138C356.769 239.338 361.249 234.597 363.312 228.678C364.315 225.792 364.727 222.672 365.257 219.698C367.379 207.948 369.679 196.111 371.182 184.274C371.535 181.388 371.329 178.561 370.002 175.94C367.88 171.788 363.695 169.139 359.51 167.342C354.5 165.163 349.048 163.897 343.714 162.749C337.101 161.336 330.408 160.333 323.673 159.745C310.174 158.508 296.558 158.744 283.06 159.951C267.794 161.306 252.645 164.103 237.968 168.549C237.615 168.667 236.642 175.381 236.789 174.645C235.905 179.562 235.05 184.48 234.225 189.427C233.4 194.344 232.545 199.291 231.779 204.209C231.602 205.298 231.425 206.388 231.278 207.477C231.013 208.39 230.895 209.362 230.807 210.333Z" fill="#E1E4E5"/>
<path d="M370.413 186.685C368.724 191.468 365.493 195.508 362.323 199.429C359.537 202.906 356.633 206.382 354.351 210.214C354.351 210.214 354.381 210.214 354.381 210.244H354.321C353.817 211.076 353.373 211.908 352.928 212.769C351.684 215.294 350.824 217.938 350.232 220.672C350.232 220.731 350.202 220.82 350.202 220.88C350.173 221.236 350.143 221.801 350.054 222.603C349.668 227.98 351.299 232.942 355.032 236.893C355.74 237.632 356.492 238.326 357.285 238.973C359.715 235.883 361.938 232.615 363.211 228.901C364.219 225.989 364.634 222.841 365.167 219.84C367.302 207.986 369.613 196.043 371.124 184.1C371.154 183.981 371.154 183.832 371.154 183.714C370.946 184.694 370.65 185.704 370.413 186.685ZM370.68 186.031C370.739 185.763 370.769 185.615 370.798 185.556C370.739 185.704 370.71 185.882 370.68 186.031Z" fill="url(#paint0_linear_26_342)"/>
<path d="M437.419 272.527C437.389 272.616 437.389 272.675 437.36 272.764C437.389 272.616 437.419 272.498 437.448 272.35C437.448 272.409 437.448 272.468 437.419 272.527C437.448 272.35 437.507 272.173 437.537 272.025C435.087 281.482 424.019 282.782 415.932 283.255C415.725 283.255 414.574 290.259 414.751 289.372C414.692 289.726 414.633 290.052 414.574 290.407C414.633 290.436 414.721 290.466 414.78 290.495C414.751 290.525 414.721 290.554 414.692 290.554C414.633 290.584 414.574 290.643 414.515 290.673C413.711 295.181 412.924 299.693 412.154 304.207C411.328 309.142 410.472 314.107 409.704 319.042C409.616 319.663 408.878 325.219 408.819 325.219C413.777 324.923 419.002 324.657 423.458 322.293C425.347 321.289 427.088 319.899 428.416 318.185C430.453 315.526 430.837 312.334 431.427 309.113C433.227 299.242 434.91 289.342 436.504 279.443C436.887 277.079 437.448 274.626 437.714 272.202C437.625 272.379 437.537 272.557 437.419 272.734V272.527Z" fill="url(#paint1_linear_26_342)"/>
<path d="M330.384 269.569C310.815 275.517 290.391 278.491 269.937 279.08C259.739 279.375 249.513 279.021 239.404 277.814C230.209 276.695 220.866 275.046 212.083 271.984C204.421 269.333 196.287 264.269 197.023 255.052C196.994 255.317 196.964 255.552 196.964 255.818L196.787 256.966C194.754 269.009 192.691 281.023 190.658 293.067C190.392 294.362 190.362 294.569 190.569 293.715C190.51 293.95 190.451 294.215 190.392 294.451C191.895 289.062 195.432 284.675 198.88 280.405C202.269 276.224 205.777 272.013 208.193 267.184C209.431 264.681 210.345 262.266 210.934 259.557C212.644 251.666 213.763 243.42 215.09 235.471C216.18 228.992 217.594 222.396 218.155 215.83C218.597 210.706 217.123 205.877 213.675 202.019C206.513 194.01 195.019 191.802 184.733 191.772C173.976 191.772 163.071 193.686 152.403 191.537C146.951 190.418 141.646 188.151 137.814 184.028C133.953 179.876 130.269 173.663 130.682 167.803C130.653 168.068 130.623 168.304 130.623 168.569C130.181 171.454 129.71 174.31 129.268 177.196C127.469 187.414 125.701 197.661 123.904 207.879C123.933 207.732 123.963 207.614 123.992 207.467C123.933 207.703 123.874 207.967 123.815 208.203C126.261 198.78 137.313 197.485 145.388 197.014C145.595 197.014 146.744 190.035 146.567 190.918C147.452 186.001 148.306 181.083 149.131 176.136C149.957 171.219 150.811 166.272 151.578 161.354C151.666 160.736 152.403 155.2 152.462 155.2C147.511 155.494 142.294 155.76 137.844 158.115C135.957 159.116 134.218 160.501 132.892 162.208C130.859 164.859 130.476 168.038 129.886 171.248C128.094 181.085 126.404 190.94 124.817 200.812C124.287 204.14 123.343 207.673 123.491 211.089C123.609 213.562 124.463 215.948 125.525 218.156C127.617 222.425 130.505 226.401 134.484 229.08C142.559 234.469 152.992 234.616 162.335 234.204C172.208 233.762 182.346 232.585 192.013 235.323C197.2 236.795 202.299 239.357 206.042 243.303C209.785 247.249 211.435 252.225 210.993 257.643C211.023 257.378 211.052 257.142 211.052 256.878C210.315 263.738 211.376 257.584 214.235 238.445C217.86 219.422 218.891 213.298 217.329 220.011C217.388 219.775 217.447 219.511 217.506 219.275C215.915 225.518 212.231 230.788 208.252 235.765C204.421 240.564 199.941 245.305 197.878 251.224C196.876 254.109 196.463 257.231 195.933 260.205C193.811 271.954 191.512 283.791 190.009 295.629C189.655 298.514 189.862 301.341 191.188 303.962C193.31 308.114 197.495 310.764 201.68 312.56C206.69 314.739 212.142 316.006 217.477 317.154C224.089 318.566 230.782 319.569 237.518 320.157C251.016 321.394 264.632 321.159 278.13 319.951C293.397 318.597 308.545 315.799 323.222 311.353C323.576 311.235 324.549 304.522 324.401 305.258C325.285 300.34 326.14 295.423 326.965 290.476C327.79 285.558 328.645 280.611 329.411 275.694C329.588 274.604 329.765 273.515 329.912 272.425C330.178 271.512 330.295 270.541 330.384 269.569Z" fill="#E1E4E5"/>
<path d="M190.777 293.218C192.467 288.435 195.697 284.394 198.868 280.473C201.654 276.997 204.557 273.521 206.839 269.688C206.839 269.688 206.81 269.688 206.81 269.658H206.869C207.373 268.827 207.818 267.995 208.262 267.133C209.506 264.608 210.366 261.963 210.959 259.231C210.959 259.171 210.988 259.082 210.988 259.022C211.018 258.666 211.048 258.102 211.137 257.299C211.522 251.922 209.892 246.961 206.158 243.009C205.45 242.271 204.698 241.576 203.906 240.929C201.475 244.019 199.253 247.287 197.979 251.001C196.971 253.912 196.556 257.062 196.023 260.062C193.889 271.916 191.577 283.86 190.066 295.803C190.036 295.921 190.036 296.07 190.036 296.189C190.244 295.208 190.54 294.198 190.777 293.218ZM190.511 293.872C190.451 294.139 190.421 294.288 190.392 294.347C190.451 294.198 190.481 294.02 190.511 293.872Z" fill="url(#paint2_linear_26_342)"/>
<path d="M123.772 207.375C123.801 207.286 123.801 207.227 123.831 207.139C123.801 207.286 123.772 207.404 123.742 207.552C123.742 207.493 123.742 207.434 123.772 207.375C123.742 207.552 123.683 207.729 123.654 207.877C126.104 198.42 137.171 197.121 145.259 196.647C145.465 196.647 146.616 189.644 146.439 190.53C146.498 190.176 146.557 189.851 146.616 189.496C146.557 189.467 146.469 189.437 146.41 189.408C146.439 189.378 146.469 189.348 146.498 189.348C146.557 189.319 146.616 189.26 146.675 189.23C147.479 184.721 148.266 180.21 149.036 175.695C149.863 170.76 150.719 165.795 151.486 160.86C151.575 160.24 152.313 154.684 152.372 154.684C147.413 154.979 142.189 155.245 137.732 157.609C135.843 158.614 134.102 160.003 132.774 161.717C130.737 164.377 130.353 167.568 129.763 170.789C127.963 180.66 126.281 190.56 124.687 200.46C124.303 202.824 123.742 205.277 123.476 207.7C123.565 207.523 123.654 207.345 123.772 207.168V207.375Z" fill="url(#paint3_linear_26_342)"/>
<path d="M293.259 281.192C332.062 281.192 363.518 249.708 363.518 210.871C363.518 172.033 332.062 140.549 293.259 140.549C254.457 140.549 223.001 172.033 223.001 210.871C223.001 249.708 254.457 281.192 293.259 281.192Z" fill="#3DD5F3"/>
<path d="M238.136 187.038C233.683 185.533 229.822 182.325 227.568 178.211C226.932 177.076 226.412 175.773 226.583 174.482C226.627 174.219 226.693 173.908 226.93 173.786C227.142 173.663 227.429 173.73 227.668 173.798C235.107 175.807 242.972 179.192 250.78 178.835C251.137 178.83 251.494 178.801 251.806 178.939C252.189 179.1 252.433 179.454 252.605 179.833C253.196 181.064 253.708 183.392 253.514 184.778C253.277 186.427 251.685 186.665 250.285 187.02C246.299 188.035 242.111 188.385 238.136 187.038Z" fill="#F8AE9D"/>
<path d="M237.449 177.798C236.85 177.545 236.227 177.292 235.583 177.278C234.94 177.264 234.23 177.608 234.025 178.231C233.889 178.663 234.015 179.114 234.187 179.517C234.656 180.559 235.479 181.404 236.348 182.154C239.677 184.964 243.944 186.664 248.307 186.931C250.238 187.045 252.261 186.871 253.962 185.964C253.112 184.927 253.28 183.446 253.189 182.137C252.916 178.302 249.651 179.758 247.031 179.751C243.743 179.681 240.469 179.039 237.449 177.798Z" fill="#F8AE9D"/>
<path d="M337.115 149.436L337.265 149.863C338.311 152.899 339.121 156.034 339.455 159.247C340.069 165.151 338.912 172.059 334.475 176.347C328.558 182.063 319.067 182.947 311.352 181.586C308.194 181.033 305.22 179.711 302.694 177.736C300.18 180.015 297.478 182.512 295.23 185.05C290.714 183.469 286.416 181.323 282.437 178.664C273.021 182.979 263.418 185.891 253.278 188C252.119 185.114 251.306 182.102 250.855 179.024C250.776 178.525 257.095 174.257 257.824 173.65C260.012 171.804 264.569 167.586 264.569 167.586C264.569 167.586 258.825 162.691 256.313 160.392C253.655 158.004 251.105 155.497 248.671 152.879C246.661 150.716 244.697 148.433 243.465 145.734C242.233 143.058 241.781 139.894 242.81 137.112C246.062 128.456 259.185 131.499 265.282 134.482C270.321 136.957 274.735 140.561 278.983 144.216C280.697 145.668 282.387 147.168 284.053 148.645C285.366 147.29 286.817 145.528 288.058 144.102C289.392 142.556 290.918 141.102 292.763 140.192C294.701 139.209 296.49 139.348 298.558 139.054C299.485 138.921 300.385 138.645 301.289 138.489C303.997 137.994 306.863 138.523 309.243 139.917C311.502 141.242 313.336 142.812 315.988 143.32C318.998 143.894 322.495 143.555 325.514 143.151C328.224 142.776 330.978 142.162 333.678 142.693C334.801 142.914 335.229 144.482 335.601 145.382C336.097 146.686 336.617 148.037 337.115 149.436ZM313.195 49.5879C313.195 49.5879 320.483 48.4272 322.441 61.3063C324.616 75.6233 330.423 73.2678 339.646 84.8936C345.036 91.6865 339.363 103.683 327.837 103.445C316.31 103.213 305.9 99.8776 299.27 101.305C292.64 102.732 292.276 85.7347 298.817 80.4903C305.359 75.2459 291.411 60.1867 299.911 53.4801C308.41 46.7742 313.195 49.5879 313.195 49.5879Z" fill="#31446C"/>
<path d="M356.762 106.376C357.427 105.009 357.387 103.421 357.147 101.939C356.108 95.5775 351.653 90.261 346.548 86.3657C341.425 82.4597 335.563 79.6716 330.173 76.1716C328.775 75.2602 327.373 74.2786 325.767 73.7862C324.161 73.2933 322.295 73.3467 320.968 74.383C320.032 75.1104 319.491 76.2344 319.177 77.3596C318.487 79.822 318.751 82.4299 319.172 84.9278C319.698 88.0784 320.47 91.1966 321.739 94.0924C322.756 96.4286 324.411 98.8326 326.899 99.2901C327.619 102.082 329.101 104.699 331.18 106.7C333.557 108.996 336.571 110.496 339.699 111.545C342.582 112.512 345.735 113.145 348.634 112.241C350.355 111.715 351.87 110.703 353.353 109.67C354.675 108.79 356.048 107.827 356.762 106.376ZM330.712 102.134L329.011 99.4306C329.371 99.4623 329.725 99.546 330.062 99.6793C330.996 100.084 331.558 101.557 330.712 102.134Z" fill="#31446C"/>
<path d="M299.182 60.9134C299.095 61.3914 299.078 61.8925 299.111 62.4638C299.304 65.8032 300.021 69.0913 301.236 72.2072C301.979 74.0554 302.887 75.8775 304.173 77.4081C304.707 78.0434 305.312 78.6303 306.101 78.8566C306.915 79.0828 307.939 79.1152 308.746 78.9119C309.457 81.8573 309.161 87.4175 306.62 89.5063C305.843 90.1379 304.92 90.5339 303.997 90.8815C302.197 91.5765 300.323 92.1055 298.447 92.5158C296.31 92.9771 293.981 93.3227 292.481 94.8956C292.293 95.0889 292.106 95.3537 292.182 95.6148C292.232 95.7814 292.353 95.8983 292.497 95.9916C293.679 96.9514 295.14 97.4773 296.6 97.9796C299.163 98.8469 301.794 99.5699 304.469 100.054C307.264 100.56 310.15 100.802 312.98 100.497C315.168 100.249 317.328 99.6911 319.313 98.7076C321.394 97.6744 323.525 96.8314 325.678 95.8448C327.499 95.0068 329.295 94.0495 331.267 93.7094C330.335 91.9352 328.391 90.9399 326.454 90.4687C324.518 90.0211 322.492 89.9807 320.533 89.6052C319.888 89.4715 319.242 89.3149 318.688 88.9176C317.171 87.8204 317.587 85.3816 317.562 83.7845L317.486 78.7316C317.711 76.3195 318.705 74.3022 319.577 72.0953C320.907 68.7128 321.182 64.8703 320.01 61.407C318.838 57.9679 316.172 54.9802 312.747 53.7686C309.323 52.5569 305.212 53.2395 302.582 55.7591C300.915 57.3817 299.556 58.8339 299.182 60.9134Z" fill="#F8AE9D"/>
<path d="M309.715 50.1672C306.301 49.7862 303.191 51.4591 300.885 54.0527C298.944 56.2266 297.804 59.0962 297.862 61.9795C297.87 62.3917 297.916 62.8399 298.148 63.2104C298.764 64.0969 300.105 63.7706 301.108 63.3758C302.743 62.7436 303.959 61.8204 305.441 61.0414C306.922 60.2625 308.721 60.3763 310.047 59.3008C311.298 58.2645 315.596 56.0805 315.712 54.3927C315.858 52.33 312.082 50.6447 310.503 50.3022C310.277 50.2313 310.015 50.199 309.715 50.1672Z" fill="#31446C"/>
<path d="M319.549 54.8378C322.435 56.701 323.79 59.9653 323.94 63.4336C324.071 66.3455 323.143 69.291 321.278 71.4898C321.012 71.8037 320.693 72.122 320.28 72.2619C319.242 72.5591 318.409 71.4581 317.881 70.5181C317.013 68.995 316.653 67.5099 315.997 65.9694C315.34 64.4289 313.874 63.3795 313.525 61.7072C313.209 60.112 311.256 55.7019 312.232 54.32C313.421 52.6284 317.412 53.7107 318.852 54.4431C319.072 54.5313 319.296 54.6731 319.549 54.8378Z" fill="#31446C"/>
<path d="M293.874 94.1589C293.418 93.9512 292.873 94.1023 292.569 94.5126C289.164 99.2851 287.849 105.266 286.697 111.029C285.392 117.582 284.229 124.156 283.114 130.73C283.047 131.065 283.005 131.423 283.153 131.731C283.301 132.038 283.637 132.201 283.948 132.339C285.916 133.286 287.907 134.21 289.875 135.157C291.998 130.322 293.529 125.247 294.433 120.043C295.697 123.243 297.978 126.022 300.888 127.837C298.72 130.945 296.051 137.161 293.448 139.896C293.05 140.331 290.586 139.652 290.035 139.47C289.693 140.453 291.297 139.403 291.288 140.405C292.769 140.621 294.661 139.734 296.182 139.544C298.018 139.329 299.871 139.317 301.708 139.508C304.762 139.843 307.731 140.799 310.444 142.235C311.794 142.954 313.088 143.771 314.317 144.68C315.377 145.475 318.002 147.342 318.002 147.342C318.195 147.482 319.097 147.278 319.31 147.227C319.928 147.122 320.546 147.042 321.188 146.984C322.767 146.861 324.339 146.654 325.896 146.364C329.008 145.792 332.067 144.911 335.002 143.698C335.285 143.479 334.277 141.396 334.223 140.992C334.276 141.373 340.058 140.903 340.628 140.799C342.908 140.336 345.215 140.086 347.494 139.598C346.473 130.41 343.671 121.536 340.917 112.732C339.84 109.267 338.739 105.803 337.212 102.536C335.588 99.0557 333.489 95.7976 330.968 92.9031C330.896 92.8329 330.776 92.7869 330.681 92.8123C329.471 93.117 322.091 95.0174 318.419 96.3844C316.549 97.1043 314.653 97.7533 312.733 98.4024C311.975 98.6523 311.192 98.9022 310.406 98.8904C309.882 98.8748 309.356 98.7636 308.854 98.6517C303.739 97.5134 298.623 96.28 293.874 94.1589Z" fill="#3DD5F3"/>
<path d="M327.168 112.464C327.378 113.772 327.66 115.103 327.942 116.41C328.628 119.376 329.508 122.294 330.576 125.145C331.122 126.567 331.691 127.964 332.331 129.362C332.652 130.048 332.971 130.735 333.316 131.421C333.487 131.752 333.659 132.107 333.831 132.439C333.978 132.722 334.149 132.982 334.296 133.242C333.271 133.21 328.213 133.502 327.167 133.589" stroke="white" stroke-width="1.376" stroke-miterlimit="10" stroke-linecap="round"/>
<path d="M327.003 134.616C327.108 135.283 327.237 135.948 327.39 136.613L327.85 138.609C328.001 139.179 328.345 139.889 328.354 140.485C328.353 140.366 324.298 140.022 323.916 139.98C319.693 139.568 315.449 139.322 311.229 139.053C308.487 138.88 305.796 138.944 303.057 138.962C302.247 138.975 301.293 138.894 300.854 138.233C300.489 137.666 300.787 136.946 300.494 136.427C300.303 136.477 298.097 137.035 298.12 136.987C298.032 137.489 297.858 138.541 297.337 138.787C297.148 138.862 296.958 138.888 296.767 138.891C296.481 138.895 296.195 138.852 295.909 138.809C295.864 138.809 295.822 138.792 295.789 138.763C295.74 138.716 295.787 138.643 295.833 138.571C296.483 137.61 296.823 136.474 296.808 135.314C297.492 134.851 298.174 134.315 298.761 133.735C299.23 133.251 299.578 132.625 300.096 132.212C300.637 131.751 301.165 132.029 301.763 132.187C302.455 132.342 303.141 132.522 303.82 132.728C305.136 133.137 306.454 133.642 307.562 134.459C307.948 134.739 308.31 135.044 308.764 135.18C309.195 135.316 309.672 135.309 310.124 135.303C312.91 135.236 315.695 135.098 318.454 134.794C321.284 134.489 323.214 134.531 326.922 133.974C326.922 133.998 326.925 134.212 327.003 134.616Z" fill="#F8AE9D"/>
<path d="M296.32 112.2C295.658 115.088 295.166 118.014 294.849 120.961" stroke="white" stroke-width="1.376" stroke-miterlimit="10" stroke-linecap="round"/>
<path d="M240.145 107.445L248.322 143.943L310.41 143C310.377 140.854 308.611 139.117 306.444 139.15L291.607 139.375L284.213 105.798C284.099 105.27 283.806 104.798 283.385 104.461C282.963 104.124 282.438 103.943 281.898 103.95L242.412 104.55C240.912 104.597 239.813 105.972 240.145 107.445Z" fill="#31446C"/>
<path d="M321.252 196.623C320.965 194.958 320.154 193.254 319.392 191.764C316.251 185.66 310.635 181.358 304.587 178.398C303.963 178.098 303.339 177.797 302.692 177.569C302.741 177.64 302.79 177.71 302.839 177.805L302.839 177.829L302.863 177.828C302.791 177.782 302.743 177.735 302.671 177.689C300.226 179.895 297.619 182.319 295.394 184.761C296.864 185.955 298.999 186.924 300.059 187.718C302.565 189.564 304.977 191.53 307.575 193.254C311.065 195.61 314.784 197.318 318.94 198.065C320.541 198.351 321.378 198.648 321.36 197.408C321.333 197.218 321.305 196.956 321.252 196.623Z" fill="#F8AE9D"/>
<path d="M317.2 191.821C315.582 188.77 313.069 186.448 310.322 184.391C308.394 182.942 306.35 181.638 304.4 180.309C303.846 179.936 302.759 178.927 301.823 178.441C299.872 180.211 297.876 182.077 296.071 184.011C302.034 187.641 307.346 192.376 313.888 194.947C314.488 195.176 315.111 195.405 315.754 195.419C316.397 195.433 317.084 195.16 317.457 194.63C318.04 193.811 317.666 192.696 317.2 191.821Z" fill="#F8AE9D"/>
<path d="M401.708 213.989C395.102 215.556 388.116 209.949 388.116 209.949C388.116 209.949 391.845 201.805 398.452 200.244C405.058 198.678 412.042 204.28 412.042 204.28C412.042 204.28 408.314 212.423 401.708 213.989Z" fill="url(#paint4_linear_26_342)"/>
<path d="M362.249 315.664C368.104 319.701 377.049 316.88 377.049 316.88C377.049 316.88 376.495 307.515 370.636 303.482C364.781 299.446 355.841 302.264 355.841 302.264C355.841 302.264 356.394 311.628 362.249 315.664Z" fill="url(#paint5_linear_26_342)"/>
<path d="M94.448 241.757C103.708 251.191 121.025 249.202 121.025 249.202C121.025 249.202 123.317 231.918 114.048 222.49C104.787 213.056 87.4786 215.039 87.4786 215.039C87.4786 215.039 85.1873 232.324 94.448 241.757Z" fill="url(#paint6_linear_26_342)"/>
<path d="M450.057 185.781C444.793 185.781 440.525 190.053 440.525 195.322C440.525 200.592 444.793 204.863 450.057 204.863C455.322 204.863 459.589 200.592 459.589 195.322C459.589 190.053 455.322 185.781 450.057 185.781Z" fill="#3DD5F3"/>
<path d="M176.442 243.693C171.957 243.693 168.321 247.332 168.321 251.821C168.321 256.31 171.957 259.949 176.442 259.949C180.926 259.949 184.562 256.31 184.562 251.821C184.562 247.332 180.926 243.693 176.442 243.693Z" fill="#3DD5F3"/>
<path d="M156.311 139.748C152.217 139.748 148.897 136.425 148.897 132.327C148.897 128.228 152.217 124.906 156.311 124.906C160.406 124.906 163.726 128.228 163.726 132.327C163.726 136.425 160.406 139.748 156.311 139.748Z" fill="#3DD5F3"/>
<path d="M382.929 146.108C378.08 146.108 374.149 142.174 374.149 137.321C374.149 132.468 378.08 128.534 382.929 128.534C387.777 128.534 391.708 132.468 391.708 137.321C391.708 142.174 387.777 146.108 382.929 146.108Z" fill="#3DD5F3"/>
<path d="M425.696 230.434C423.746 230.434 422.165 228.852 422.165 226.901C422.165 224.949 423.746 223.367 425.696 223.367C427.646 223.367 429.226 224.949 429.226 226.901C429.226 228.852 427.646 230.434 425.696 230.434Z" fill="#E1E4E5"/>
<path d="M143.166 262.343C139.907 262.343 137.266 259.699 137.266 256.438C137.266 253.176 139.907 250.532 143.166 250.532C146.425 250.532 149.067 253.176 149.067 256.438C149.067 259.699 146.425 262.343 143.166 262.343Z" fill="#E1E4E5"/>
<path d="M428.375 154.394C426.115 154.394 424.283 152.56 424.283 150.298C424.283 148.037 426.115 146.203 428.375 146.203C430.635 146.203 432.467 148.037 432.467 150.298C432.467 152.56 430.635 154.394 428.375 154.394Z" fill="#E1E4E5"/>
<path d="M415.7 100.752C412.25 100.752 409.454 97.9534 409.454 94.5008C409.454 91.0482 412.25 88.2493 415.7 88.2493C419.149 88.2493 421.946 91.0482 421.946 94.5008C421.946 97.9534 419.149 100.752 415.7 100.752Z" fill="#E1E4E5"/>
<path d="M199.631 167.448C200.215 169.63 198.921 171.872 196.742 172.457C194.562 173.041 192.322 171.746 191.738 169.565C191.154 167.383 192.447 165.141 194.627 164.557C196.806 163.972 199.047 165.267 199.631 167.448Z" fill="#E1E4E5"/>
<path d="M119.593 155.391C117.448 155.391 115.709 153.65 115.709 151.503C115.709 149.356 117.448 147.616 119.593 147.616C121.738 147.616 123.477 149.356 123.477 151.503C123.477 153.65 121.738 155.391 119.593 155.391Z" fill="#E1E4E5"/>
<path d="M471.295 113.692H471.405C472.052 122.877 478.877 123.018 478.877 123.018C478.877 123.018 471.351 123.165 471.351 133.778C471.351 123.165 463.826 123.018 463.826 123.018C463.826 123.018 470.648 122.877 471.295 113.692ZM373.851 67.0468H373.96C374.608 76.2313 381.432 76.3724 381.432 76.3724C381.432 76.3724 373.907 76.5197 373.907 87.1322C373.907 76.5197 366.382 76.3724 366.382 76.3724C366.382 76.3724 373.203 76.2313 373.851 67.0468ZM378.794 216.171H378.903C379.55 225.355 386.375 225.497 386.375 225.497C386.375 225.497 378.85 225.644 378.85 236.256C378.85 225.644 371.324 225.497 371.324 225.497C371.324 225.497 378.146 225.355 378.794 216.171ZM168.281 281.192H168.348C168.743 286.794 172.905 286.88 172.905 286.88C172.905 286.88 168.316 286.97 168.316 293.442C168.316 286.97 163.726 286.88 163.726 286.88C163.726 286.88 167.886 286.794 168.281 281.192ZM204.382 122.173H204.492C205.139 131.358 211.964 131.499 211.964 131.499C211.964 131.499 204.439 131.646 204.439 142.258C204.439 131.646 196.913 131.499 196.913 131.499C196.913 131.499 203.735 131.358 204.382 122.173ZM200.025 55.7386H200.153C200.913 66.7266 208.918 66.8957 208.918 66.8957C208.918 66.8957 200.091 67.0716 200.091 79.7679C200.091 67.0716 191.264 66.8957 191.264 66.8957C191.264 66.8957 199.265 66.7266 200.025 55.7386Z" fill="#E1E4E5"/>
</g>
<defs>
<linearGradient id="paint0_linear_26_342" x1="383.014" y1="210.165" x2="326.979" y2="210.414" gradientUnits="userSpaceOnUse">
<stop stop-color="white"/>
<stop offset="1" stop-color="#EEEEEE"/>
</linearGradient>
<linearGradient id="paint1_linear_26_342" x1="453.914" y1="297.488" x2="377.378" y2="297.971" gradientUnits="userSpaceOnUse">
<stop stop-color="white"/>
<stop offset="1" stop-color="#EEEEEE"/>
</linearGradient>
<linearGradient id="paint2_linear_26_342" x1="178.176" y1="269.737" x2="234.212" y2="269.488" gradientUnits="userSpaceOnUse">
<stop stop-color="white"/>
<stop offset="1" stop-color="#EEEEEE"/>
</linearGradient>
<linearGradient id="paint3_linear_26_342" x1="107.276" y1="182.414" x2="183.812" y2="181.93" gradientUnits="userSpaceOnUse">
<stop stop-color="white"/>
<stop offset="1" stop-color="#EEEEEE"/>
</linearGradient>
<linearGradient id="paint4_linear_26_342" x1="376.834" y1="217.884" x2="434.677" y2="190.581" gradientUnits="userSpaceOnUse">
<stop stop-color="white"/>
<stop offset="1" stop-color="#EEEEEE"/>
</linearGradient>
<linearGradient id="paint5_linear_26_342" x1="385.056" y1="328.908" x2="338.925" y2="280.308" gradientUnits="userSpaceOnUse">
<stop stop-color="white"/>
<stop offset="1" stop-color="#EEEEEE"/>
</linearGradient>
<linearGradient id="paint6_linear_26_342" x1="131.396" y1="273.981" x2="64.362" y2="168.994" gradientUnits="userSpaceOnUse">
<stop stop-color="white"/>
<stop offset="1" stop-color="#EEEEEE"/>
</linearGradient>
<clipPath id="clip0_26_342">
<rect width="559" height="373" fill="white"/>
</clipPath>
</defs>
</svg>
