<svg width="495" height="330" viewBox="0 0 495 330" fill="none" xmlns="http://www.w3.org/2000/svg">
<g clip-path="url(#clip0_26_254)">
<path d="M365.421 103.985C361.483 111.012 352.86 111.978 339.043 110.642C328.653 109.636 319.177 108.858 308.786 103.192C301.513 99.2293 295.755 93.868 291.553 88.6605C286.999 83.0198 280.644 76.5814 283.759 70.1855C288.041 61.3992 312.803 53.999 336.847 66.1006C363.26 79.398 369.273 97.1163 365.421 103.985Z" fill="url(#paint0_linear_26_254)"/>
<path d="M427.208 141.088C417.314 145.995 404.183 139.685 404.183 139.685C404.183 139.685 407.101 125.42 417 120.52C426.893 115.612 440.019 121.915 440.019 121.915C440.019 121.915 437.1 136.18 427.208 141.088Z" fill="url(#paint1_linear_26_254)"/>
<path d="M69.3616 206.018C80.3374 212.596 96.0839 206.516 96.0839 206.516C96.0839 206.516 94.0252 189.771 83.0428 183.201C72.067 176.623 56.3271 182.696 56.3271 182.696C56.3271 182.696 58.3858 199.44 69.3616 206.018Z" fill="url(#paint2_linear_26_254)"/>
<path d="M365.534 136.968C360.567 136.968 356.54 140.994 356.54 145.961C356.54 150.928 360.567 154.955 365.534 154.955C370.501 154.955 374.527 150.928 374.527 145.961C374.527 140.994 370.501 136.968 365.534 136.968Z" fill="#9EEAF9"/>
<path d="M129.621 130.588C125.532 130.588 122.217 133.902 122.217 137.991C122.217 142.08 125.532 145.395 129.621 145.395C133.71 145.395 137.024 142.08 137.024 137.991C137.024 133.902 133.71 130.588 129.621 130.588Z" fill="#9EEAF9"/>
<path d="M184.009 270.992C179.353 270.992 175.578 267.217 175.578 262.561C175.578 257.904 179.353 254.13 184.009 254.13C188.665 254.13 192.44 257.904 192.44 262.561C192.44 267.217 188.665 270.992 184.009 270.992Z" fill="#9EEAF9"/>
<path d="M421.956 177.318C419.783 177.318 418.021 175.556 418.021 173.383C418.021 171.21 419.783 169.448 421.956 169.448C424.129 169.448 425.891 171.21 425.891 173.383C425.891 175.556 424.129 177.318 421.956 177.318Z" fill="#9EEAF9"/>
<path d="M326.219 266.567C323.425 266.567 321.16 264.302 321.16 261.509C321.16 258.715 323.425 256.45 326.219 256.45C329.013 256.45 331.278 258.715 331.278 261.509C331.278 264.302 329.013 266.567 326.219 266.567Z" fill="#E1E4E5"/>
<path d="M77.3558 254.267C73.3201 254.267 70.0485 250.996 70.0485 246.96C70.0485 242.924 73.3201 239.653 77.3558 239.653C81.3916 239.653 84.6631 242.924 84.6631 246.96C84.6631 250.996 81.3916 254.267 77.3558 254.267Z" fill="#E1E4E5"/>
<path d="M388.202 271.052C385.131 271.052 382.641 268.562 382.641 265.491C382.641 262.42 385.131 259.93 388.202 259.93C391.273 259.93 393.763 262.42 393.763 265.491C393.763 268.562 391.273 271.052 388.202 271.052Z" fill="#E1E4E5"/>
<path d="M403.592 73.2633C400.177 73.2633 397.409 70.495 397.409 67.0802C397.409 63.6654 400.177 60.8971 403.592 60.8971C407.006 60.8971 409.775 63.6654 409.775 67.0802C409.775 70.495 407.006 73.2633 403.592 73.2633Z" fill="#E1E4E5"/>
<path d="M78.9111 151.262C79.7047 154.224 77.947 157.268 74.985 158.062C72.0231 158.855 68.9786 157.098 68.1849 154.136C67.3913 151.174 69.149 148.129 72.111 147.336C75.0729 146.542 78.1174 148.3 78.9111 151.262Z" fill="#E1E4E5"/>
<path d="M189.223 44.8822C187.946 44.8822 186.911 43.8475 186.911 42.5711C186.911 41.2947 187.946 40.26 189.223 40.26C190.499 40.26 191.534 41.2947 191.534 42.5711C191.534 43.8475 190.499 44.8822 189.223 44.8822Z" fill="#E1E4E5"/>
<path d="M412.454 219.693C409.317 219.693 406.773 217.658 406.773 215.148C406.773 212.638 409.317 210.603 412.454 210.603C415.592 210.603 418.136 212.638 418.136 215.148C418.136 217.658 415.592 219.693 412.454 219.693Z" fill="#E1E4E5"/>
<path d="M302.505 39.0821C303.079 41.2263 301.807 43.4303 299.663 44.0048C297.519 44.5794 295.315 43.3069 294.74 41.1627C294.166 39.0185 295.438 36.8145 297.582 36.2399C299.726 35.6654 301.93 36.9379 302.505 39.0821Z" fill="#E1E4E5"/>
<path d="M120.473 80.5349H120.554C121.034 87.3257 126.084 87.4302 126.084 87.4302C126.084 87.4302 120.514 87.5391 120.514 95.3854C120.514 87.5391 114.946 87.4302 114.946 87.4302C114.946 87.4302 119.994 87.3257 120.473 80.5349ZM116.951 279.928H117.029C117.489 286.698 122.338 286.803 122.338 286.803C122.338 286.803 116.991 286.911 116.991 294.735C116.991 286.911 111.644 286.803 111.644 286.803C111.644 286.803 116.491 286.698 116.951 279.928Z" fill="#E1E4E5"/>
<path d="M218.237 228.25H283.918M218.237 249.13H283.918M246.657 271.17H254.917M218.494 187.161V188.913C218.205 187.899 217.678 186.968 216.955 186.2C217.468 186.53 217.981 186.85 218.494 187.161ZM283.747 187.074C303.872 174.887 319.472 151.3 320.003 125.457C319.534 149.827 305.759 172.475 286.67 185.335C285.774 185.939 285.039 186.754 284.531 187.708C284.023 188.662 283.758 189.727 283.758 190.808V197.37C283.758 197.446 283.759 197.521 283.761 197.597C283.847 200.08 283.699 202.042 282.287 203.541C281.684 204.106 280.864 204.639 279.709 205.027C280.906 204.523 281.927 203.677 282.646 202.595C283.364 201.513 283.747 200.243 283.747 198.944V187.074ZM220.471 203.655C221.287 204.487 222.309 205.089 223.433 205.398C223.103 205.344 222.784 205.279 222.477 205.203C221.175 204.879 220.372 204.412 219.85 203.876C219.122 203.127 218.821 202.239 218.744 200.749C219.057 201.851 219.653 202.853 220.471 203.655ZM225.094 205.544C225.178 205.544 225.135 205.546 225.023 205.544L225.094 205.544ZM283.747 187.06C283.719 187.087 283.688 187.11 283.654 187.129C283.674 187.118 283.693 187.107 283.712 187.095L283.746 187.075C283.746 187.073 283.747 187.07 283.747 187.068V187.06Z" stroke="#9EEAF9" stroke-width="24" stroke-linecap="round" stroke-linejoin="round"/>
<path d="M141.891 252.297C123.338 252.297 108.297 237.256 108.297 218.703C108.297 200.149 123.338 185.109 141.891 185.109C160.445 185.109 175.485 200.149 175.485 218.703C175.485 237.256 160.445 252.297 141.891 252.297Z" fill="#9EEAF9"/>
<path fill-rule="evenodd" clip-rule="evenodd" d="M153.475 230.456V232.109C153.475 232.547 153.3 232.968 152.99 233.278C152.68 233.588 152.259 233.762 151.82 233.762H131.962C131.523 233.762 131.103 233.588 130.792 233.278C130.482 232.968 130.308 232.547 130.307 232.109V230.43C130.307 225.427 136.03 222.178 141.891 222.178C147.753 222.178 153.475 225.429 153.475 230.43M145.986 207.656C148.249 209.919 148.249 213.585 145.986 215.848C143.725 218.11 140.058 218.11 137.795 215.848C135.534 213.585 135.534 209.919 137.795 207.656C140.058 205.394 143.725 205.394 145.986 207.656Z" fill="white"/>
<path d="M251.075 172.15C225.104 172.15 204.05 150.973 204.05 124.85C204.05 98.7269 225.104 77.55 251.075 77.55C277.046 77.55 298.1 98.7269 298.1 124.85C298.1 150.973 277.046 172.15 251.075 172.15Z" fill="#9EEAF9"/>
<path fill-rule="evenodd" clip-rule="evenodd" d="M266.75 140.255V142.453C266.75 143.666 265.729 144.65 264.471 144.65H237.129C235.871 144.65 234.85 143.666 234.85 142.453V140.22C234.85 133.57 242.729 129.25 250.8 129.25C258.871 129.25 266.75 133.572 266.75 140.22M256.714 109.036C259.829 112.15 259.829 117.2 256.714 120.314C253.599 123.429 248.55 123.429 245.436 120.314C242.321 117.2 242.321 112.15 245.436 109.036C248.55 105.921 253.599 105.921 256.714 109.036Z" fill="white"/>
<path d="M359.974 252.297C341.42 252.297 326.38 237.256 326.38 218.703C326.38 200.149 341.42 185.109 359.974 185.109C378.527 185.109 393.568 200.149 393.568 218.703C393.568 237.256 378.527 252.297 359.974 252.297Z" fill="#9EEAF9"/>
<path fill-rule="evenodd" clip-rule="evenodd" d="M371.559 230.456V232.109C371.558 232.547 371.384 232.968 371.073 233.278C370.763 233.588 370.342 233.762 369.904 233.762H350.045C349.606 233.762 349.186 233.588 348.875 233.278C348.565 232.968 348.391 232.547 348.39 232.109V230.43C348.39 225.427 354.113 222.178 359.974 222.178C365.836 222.178 371.559 225.429 371.559 230.43M364.07 207.656C366.332 209.919 366.332 213.585 364.07 215.848C361.808 218.11 358.141 218.11 355.879 215.848C353.616 213.585 353.616 209.919 355.879 207.656C358.141 205.394 361.808 205.394 364.07 207.656Z" fill="white"/>
</g>
<defs>
<linearGradient id="paint0_linear_26_254" x1="338.894" y1="149.53" x2="303.797" y2="-8.18234" gradientUnits="userSpaceOnUse">
<stop stop-color="white"/>
<stop offset="1" stop-color="#EEEEEE"/>
</linearGradient>
<linearGradient id="paint1_linear_26_254" x1="389.216" y1="156.396" x2="470.817" y2="91.8495" gradientUnits="userSpaceOnUse">
<stop stop-color="white"/>
<stop offset="1" stop-color="#EEEEEE"/>
</linearGradient>
<linearGradient id="paint2_linear_26_254" x1="111.835" y1="227.193" x2="23.5202" y2="145.137" gradientUnits="userSpaceOnUse">
<stop stop-color="white"/>
<stop offset="1" stop-color="#EEEEEE"/>
</linearGradient>
<clipPath id="clip0_26_254">
<rect width="495" height="330" fill="white"/>
</clipPath>
</defs>
</svg>
