<svg width="600" height="391" viewBox="0 0 600 391" fill="none" xmlns="http://www.w3.org/2000/svg">
<g clip-path="url(#clip0_78_512)">
<path d="M502.138 320.528H97.862C89.2161 320.528 82.1818 313.06 82.1818 303.881V252.225H517.819V303.881C517.819 313.06 510.785 320.528 502.138 320.528Z" fill="#E6E6E6"/>
<path d="M352.323 311.887H249.227V390.064H352.323V311.887Z" fill="#E6E6E6"/>
<path d="M358.524 380.189H243.026V390.064H358.524V380.189Z" fill="#E6E6E6"/>
<path d="M517.431 274.033H82.1818V11.4237C82.1818 5.12477 87.0091 0 92.9423 0H506.67C512.604 0 517.431 5.12477 517.431 11.4237V274.033Z" fill="#3F3D56"/>
<path d="M300.775 9.46358C302.488 9.46358 303.876 7.98985 303.876 6.1719C303.876 4.35396 302.488 2.88022 300.775 2.88022C299.063 2.88022 297.675 4.35396 297.675 6.1719C297.675 7.98985 299.063 9.46358 300.775 9.46358Z" fill="white"/>
<path d="M506.966 11.9323H92.2588V259.631H506.966V11.9323Z" fill="white"/>
<path d="M458.43 199.073C477.958 199.073 493.788 182.267 493.788 161.536C493.788 140.805 477.958 124 458.43 124C438.903 124 423.073 140.805 423.073 161.536C423.073 182.267 438.903 199.073 458.43 199.073Z" fill="#3DD5F3"/>
<path d="M600 390.309C600 390.69 599.708 391 599.349 391H0V389.617H599.349C599.708 389.617 600 389.927 600 390.309Z" fill="#E6E6E6"/>
<path d="M101.508 156.077L97.0408 172.678L114.911 173.863L113.795 154.299L101.508 156.077Z" fill="#FFB6B6"/>
<path d="M175.75 223.843C179.991 225.38 184.176 224.303 185.097 221.438C186.018 218.572 183.326 215.004 179.084 213.468C177.397 212.829 175.591 212.628 173.816 212.883L155.77 206.611L153.179 215.664L171.244 220.886C172.502 222.239 174.047 223.254 175.75 223.843Z" fill="#FFB6B6"/>
<path d="M115.869 168.996C115.869 168.996 104.683 183.283 111.154 189.194C117.626 195.106 146.526 216.988 146.526 216.988L157.792 218.851L160.674 207.289L135.233 187.276L115.869 168.996Z" fill="#3DD5F3"/>
<path d="M145.509 321.087L151.725 345.546L161.599 343.605L159.405 318.37L145.509 321.087Z" fill="#FFB6B6"/>
<path d="M153.188 343.993L149.531 344.769L146.606 355.251C146.606 355.251 151.36 357.193 151.36 361.075C151.36 364.957 153.188 367.675 160.502 367.287C167.816 366.898 168.547 367.287 168.547 364.181C168.547 361.075 163.062 344.769 163.062 344.769C163.062 344.769 163.428 338.169 159.039 338.558C154.651 338.946 153.188 343.993 153.188 343.993Z" fill="#2F2E41"/>
<path d="M112.079 320.707L112.503 346.036L122.525 346.704L126.18 321.661L112.079 320.707Z" fill="#FFB6B6"/>
<path d="M114.278 344.908L110.553 344.716L105.312 354.128C105.312 354.128 109.479 357.238 108.589 361.004C107.699 364.77 108.85 367.878 116.033 369.391C123.216 370.903 123.836 371.469 124.548 368.456C125.26 365.444 123.677 348.211 123.677 348.211C123.677 348.211 125.544 341.904 121.198 341.147C116.853 340.39 114.278 344.908 114.278 344.908Z" fill="#2F2E41"/>
<path d="M116.253 169.291L96.5059 167.738L92.1176 173.561C92.1176 173.561 89.9235 212.772 91.3862 216.654C92.849 220.537 91.7519 242.666 91.7519 242.666L141.534 238.977L130.515 210.831L130.881 194.525L121.007 174.726L116.253 169.291Z" fill="#3DD5F3"/>
<path d="M93.9461 234.513C93.9461 234.513 85.9009 246.936 88.8264 253.536C91.752 260.136 111.596 298.457 111.596 298.457L109.036 334.174L126.59 332.621L129.515 294.186L117.35 262.853L119.545 259.359L137.829 283.041L144.412 324.193L161.965 321.864L152.457 261.689L141.345 238.495L93.9461 234.513Z" fill="#2F2E41"/>
<path d="M92.2273 145.516C95.9717 145.516 99.0071 142.293 99.0071 138.318C99.0071 134.343 95.9717 131.121 92.2273 131.121C88.4829 131.121 85.4475 134.343 85.4475 138.318C85.4475 142.293 88.4829 145.516 92.2273 145.516Z" fill="#2F2E41"/>
<path d="M107.884 165.001C116.039 165.001 122.649 157.984 122.649 149.327C122.649 140.67 116.039 133.652 107.884 133.652C99.7299 133.652 93.1195 140.67 93.1195 149.327C93.1195 157.984 99.7299 165.001 107.884 165.001Z" fill="#FFB6B6"/>
<path d="M103.203 166.511C101.634 167.394 97.2181 164.154 95.6382 159.812C94.6218 157.019 92.1508 157.484 90.574 154.001C89.6552 151.971 92.3988 149.986 91.9463 148.231C91.1264 145.052 92.1543 142.207 92.2853 141.858C93.4159 138.85 95.0824 138.92 96.4263 135.419C97.2354 133.311 96.7163 133.064 97.3964 131.985C99.3591 128.873 105.054 128.754 109.07 130.226C110.46 130.736 113.808 128.006 116.526 129.984C119.728 132.313 121.858 139.028 121.368 140.258C121.07 141.006 119.413 140.244 115.965 140.819C112.773 141.352 116.986 143.884 113.394 144.747C109.146 145.767 107.866 144.836 106.689 146.263C105.444 147.771 105.214 150.823 106.35 152.635C106.913 153.534 107.64 153.852 107.549 154.478C107.383 155.62 106.427 154.999 106.113 156.211C105.749 157.621 108.774 159.469 108.511 159.895C108.458 159.981 108.232 160.074 105.277 158.866C104.098 158.383 103.643 157.966 103.51 158.12C103.296 158.37 102.235 160.873 103.441 161.938C105.316 163.595 104.016 164.253 104.871 165.55C105.753 166.889 104.2 165.95 103.203 166.511Z" fill="#2F2E41"/>
<path d="M106.66 257.077C109.016 261.123 112.893 263.112 115.319 261.52C117.744 259.928 117.799 255.357 115.442 251.31C114.521 249.679 113.246 248.306 111.723 247.306L101.535 230.295L94.1172 235.541L104.948 251.754C105.11 253.648 105.697 255.473 106.66 257.077Z" fill="#FFB6B6"/>
<path d="M93.2147 174.338C93.2147 174.338 76.0272 177.832 77.49 186.761C78.9527 195.69 88.1859 232.078 88.1859 232.078L95.7746 241.113L104.917 234.125L97.2373 201.514L93.2147 174.338Z" fill="#3DD5F3"/>
<path d="M499.18 181.794C498.504 180.585 495.58 181.88 495.042 180.782C494.507 179.688 497.223 178.021 498.775 174.213C499.055 173.526 500.819 169.198 499.513 167.863C497.038 165.331 485.712 175.777 481.749 172.359C480.879 171.609 480.271 170.111 477.639 167.68C476.591 166.712 475.958 166.276 475.345 166.438C474.475 166.669 474.407 167.904 473.474 170.334C472.075 173.978 471.248 173.757 470.433 176.665C469.828 178.823 469.967 180.077 469.255 180.322C468.248 180.668 467.32 178.379 466.044 178.584C464.741 178.793 463.954 181.458 463.705 183.453C463.238 187.198 464.534 189.669 465.251 192.267C466.032 195.091 466.495 199.385 464.693 205.463L446.859 258.807C450.796 247.861 462.196 217.855 466.986 206.705C468.369 203.486 469.896 200.221 473.031 198.933C476.05 197.692 480.195 198.433 485.48 197.081C486.097 196.923 487.81 196.461 488.026 195.391C488.204 194.507 487.196 194.013 487.351 193.185C487.559 192.075 489.54 192.061 491.975 190.779C493.691 189.876 494.761 188.801 495.68 187.877C495.958 187.598 500.079 183.405 499.18 181.794Z" fill="#E6E6E6"/>
<path d="M429.016 209.877C428.262 209.88 428.017 211.777 427.354 211.74C426.694 211.704 426.707 209.807 425.394 207.9C425.158 207.556 423.666 205.388 422.672 205.683C420.787 206.242 422.349 215.157 419.625 216.236C419.027 216.473 418.159 216.358 416.275 217.028C415.526 217.295 415.141 217.499 415.04 217.865C414.895 218.384 415.447 218.777 416.301 219.964C417.582 221.744 417.242 222.111 418.35 223.375C419.174 224.313 419.793 224.603 419.701 225.044C419.57 225.669 418.245 225.491 417.971 226.216C417.692 226.955 418.697 228.134 419.548 228.839C421.144 230.163 422.66 230.201 424.069 230.577C425.599 230.985 427.718 231.982 430.008 234.675L449.524 259.359C445.6 254.149 435.017 239.552 431.244 233.838C430.155 232.189 429.086 230.451 429.395 228.446C429.692 226.515 431.231 224.569 432.131 221.425C432.236 221.058 432.516 220.032 432.084 219.611C431.727 219.263 431.208 219.646 430.87 219.326C430.416 218.898 430.981 217.861 431.091 216.223C431.169 215.068 430.981 214.201 430.819 213.455C430.77 213.23 430.021 209.872 429.016 209.877Z" fill="#E6E6E6"/>
<path d="M444.066 213.463L443.612 209.156L443.819 208.829C444.78 207.319 445.27 205.845 445.276 204.445C445.277 204.222 445.267 204 445.257 203.773C445.218 202.875 445.169 201.758 445.718 200.456C446.025 199.73 446.889 198.05 448.188 198.258C448.538 198.31 448.802 198.48 449.003 198.68C449.032 198.63 449.063 198.58 449.095 198.526C449.5 197.871 449.82 197.59 450.129 197.32C450.366 197.112 450.61 196.897 450.994 196.39C451.163 196.167 451.294 195.972 451.405 195.807C451.741 195.31 452.18 194.718 452.953 194.728C453.78 194.77 454.213 195.495 454.5 195.976C455.013 196.833 455.245 197.451 455.398 197.86C455.454 198.01 455.518 198.178 455.55 198.23C455.817 198.646 457.983 198.257 458.798 198.116C460.631 197.792 462.217 197.511 462.87 198.738C463.339 199.616 462.991 200.776 461.806 202.28C461.436 202.748 461.044 203.103 460.695 203.382C460.984 203.565 461.242 203.846 461.347 204.287C461.594 205.331 460.749 206.377 458.836 207.4C458.361 207.656 457.721 207.997 456.825 208.162C456.402 208.239 456.022 208.257 455.697 208.268C455.69 208.467 455.646 208.684 455.532 208.906C455.196 209.561 454.496 209.873 453.442 209.798C452.283 209.734 451.327 209.499 450.485 209.293C449.749 209.114 449.116 208.962 448.618 208.998C447.695 209.077 446.984 209.861 446.15 210.878L444.066 213.463Z" fill="#E6E6E6"/>
<path d="M446.175 187.817L442.365 189.377L442.015 189.246C440.396 188.642 438.928 188.514 437.651 188.863C437.448 188.918 437.248 188.984 437.044 189.052C436.235 189.32 435.23 189.654 433.904 189.421C433.165 189.289 431.414 188.828 431.275 187.441C431.233 187.069 431.322 186.754 431.453 186.497C431.4 186.48 431.346 186.461 431.289 186.442C430.589 186.193 430.252 185.935 429.928 185.687C429.678 185.496 429.421 185.299 428.861 185.033C428.615 184.917 428.404 184.832 428.226 184.76C427.688 184.541 427.037 184.24 426.85 183.443C426.678 182.583 427.23 181.955 427.595 181.538C428.245 180.795 428.749 180.4 429.084 180.138C429.206 180.042 429.343 179.934 429.382 179.888C429.694 179.509 428.79 177.383 428.454 176.581C427.694 174.782 427.036 173.224 427.988 172.242C428.669 171.539 429.815 171.601 431.485 172.437C432.006 172.698 432.429 173.011 432.772 173.298C432.865 172.955 433.055 172.618 433.43 172.399C434.319 171.881 435.487 172.483 436.904 174.188C437.258 174.611 437.731 175.182 438.108 176.06C438.285 176.474 438.399 176.86 438.491 177.191C438.674 177.148 438.883 177.138 439.114 177.199C439.797 177.378 440.258 178.017 440.457 179.118C440.693 180.326 440.721 181.366 440.747 182.283C440.771 183.084 440.793 183.774 440.951 184.276C441.257 185.203 442.152 185.735 443.291 186.334L446.175 187.817Z" fill="#E6E6E6"/>
<path d="M444.066 175.128L443.612 170.821L443.819 170.494C444.78 168.984 445.27 167.51 445.276 166.11C445.277 165.887 445.267 165.665 445.257 165.438C445.218 164.54 445.169 163.423 445.718 162.121C446.025 161.395 446.889 159.714 448.188 159.922C448.538 159.974 448.802 160.145 449.003 160.345C449.032 160.295 449.063 160.245 449.095 160.191C449.5 159.536 449.82 159.255 450.129 158.984C450.366 158.776 450.61 158.562 450.994 158.055C451.163 157.832 451.294 157.637 451.405 157.472C451.741 156.975 452.18 156.383 452.953 156.393C453.78 156.435 454.213 157.16 454.5 157.641C455.013 158.498 455.245 159.115 455.398 159.525C455.454 159.675 455.518 159.843 455.55 159.895C455.817 160.311 457.983 159.922 458.798 159.781C460.631 159.456 462.217 159.176 462.87 160.403C463.339 161.28 462.991 162.441 461.806 163.945C461.436 164.413 461.044 164.768 460.695 165.047C460.984 165.23 461.242 165.511 461.347 165.952C461.594 166.996 460.749 168.042 458.836 169.065C458.361 169.321 457.721 169.662 456.825 169.826C456.402 169.903 456.022 169.922 455.697 169.933C455.69 170.132 455.646 170.349 455.532 170.571C455.196 171.226 454.496 171.538 453.442 171.463C452.283 171.399 451.327 171.164 450.485 170.958C449.749 170.779 449.116 170.627 448.618 170.663C447.695 170.742 446.984 171.526 446.15 172.543L444.066 175.128Z" fill="#E6E6E6"/>
<path d="M448.217 258.736L447.367 258.171L446.376 258.291C446.36 258.194 446.306 257.969 446.225 257.617C445.781 255.692 444.429 249.831 443.3 240.6C442.513 234.157 442.067 227.533 441.975 220.909C441.883 214.274 442.178 209.251 442.416 205.215C442.595 202.17 442.812 199.27 443.026 196.446C443.594 188.9 444.13 181.773 443.731 173.882C443.643 172.121 443.458 168.454 441.44 164.552C440.269 162.289 438.657 160.28 436.647 158.583L437.897 156.915C440.116 158.791 441.899 161.016 443.199 163.529C445.436 167.855 445.638 171.85 445.735 173.77C446.141 181.8 445.599 188.996 445.025 196.614C444.813 199.428 444.596 202.315 444.418 205.348C444.183 209.347 443.89 214.326 443.981 220.876C444.071 227.421 444.512 233.964 445.289 240.326C446.403 249.44 447.736 255.213 448.174 257.11C448.407 258.123 448.456 258.335 448.217 258.736Z" fill="#E6E6E6"/>
<path d="M432.968 161.967C432.886 161.967 432.802 161.965 432.718 161.959C431.01 161.861 429.428 160.775 428.015 158.733C427.353 157.772 427.014 156.676 426.338 154.49C426.233 154.153 425.724 152.443 425.415 150.091C425.212 148.554 425.237 147.911 425.524 147.344C425.843 146.711 426.358 146.271 426.938 145.973C426.912 145.769 426.933 145.559 427.016 145.345C427.358 144.457 428.267 144.573 428.759 144.63C429.008 144.663 429.318 144.706 429.653 144.688C430.18 144.661 430.463 144.494 430.892 144.245C431.303 144.006 431.813 143.708 432.57 143.544C434.063 143.213 435.314 143.662 435.726 143.81C437.896 144.577 438.966 146.368 440.204 148.442C440.451 148.858 441.298 150.372 441.857 152.448C442.261 153.945 442.204 154.611 442.082 155.105C441.836 156.123 441.253 156.705 439.773 157.99C438.227 159.336 437.451 160.01 436.785 160.419C435.234 161.37 434.261 161.967 432.968 161.967Z" fill="#E6E6E6"/>
<path d="M344.466 221.121H187.058C180.722 221.121 175.566 215.648 175.566 208.921V82.5597C175.566 75.833 180.722 70.3597 187.058 70.3597H344.466C350.803 70.3597 355.958 75.833 355.958 82.5597V208.921C355.958 215.648 350.803 221.121 344.466 221.121Z" fill="white"/>
<path d="M344.466 221.121H187.058C180.722 221.121 175.566 215.648 175.566 208.921V82.5597C175.566 75.833 180.722 70.3597 187.058 70.3597H344.466C350.803 70.3597 355.958 75.833 355.958 82.5597V208.921C355.958 215.648 350.803 221.121 344.466 221.121ZM187.058 72.397C181.78 72.397 177.485 76.9561 177.485 82.5597V208.921C177.485 214.525 181.78 219.084 187.058 219.084H344.466C349.744 219.084 354.039 214.525 354.039 208.921V82.5597C354.039 76.9561 349.744 72.397 344.466 72.397H187.058Z" fill="#3F3D56"/>
<path d="M327.172 85.6396C328.762 85.6396 330.051 84.2714 330.051 82.5836C330.051 80.8958 328.762 79.5276 327.172 79.5276C325.582 79.5276 324.293 80.8958 324.293 82.5836C324.293 84.2714 325.582 85.6396 327.172 85.6396Z" fill="#3F3D56"/>
<path d="M334.848 85.6396C336.438 85.6396 337.727 84.2714 337.727 82.5836C337.727 80.8958 336.438 79.5276 334.848 79.5276C333.258 79.5276 331.97 80.8958 331.97 82.5836C331.97 84.2714 333.258 85.6396 334.848 85.6396Z" fill="#3F3D56"/>
<path d="M342.524 85.6396C344.114 85.6396 345.403 84.2714 345.403 82.5836C345.403 80.8958 344.114 79.5276 342.524 79.5276C340.935 79.5276 339.646 80.8958 339.646 82.5836C339.646 84.2714 340.935 85.6396 342.524 85.6396Z" fill="#3F3D56"/>
<path d="M191.878 131.988C191.085 131.988 190.439 132.674 190.439 133.516C190.439 133.927 190.589 134.307 190.86 134.588C191.133 134.885 191.492 135.044 191.878 135.044H340.605C341.399 135.044 342.045 134.359 342.045 133.516C342.045 133.106 341.895 132.726 341.624 132.445C341.35 132.148 340.992 131.988 340.605 131.988H191.878Z" fill="#E6E6E6"/>
<path d="M313.739 131.479V135.554H191.878C191.351 135.554 190.871 135.33 190.525 134.953C190.17 134.586 189.959 134.077 189.959 133.516C189.959 132.396 190.823 131.479 191.878 131.479H313.739Z" fill="#3DD5F3"/>
<path d="M338.207 123.839H319.016C316.9 123.839 315.178 122.012 315.178 119.765C315.178 117.517 316.9 115.69 319.016 115.69H338.207C340.323 115.69 342.045 117.517 342.045 119.765C342.045 122.012 340.323 123.839 338.207 123.839Z" fill="#E6E6E6"/>
<path d="M212.508 102.447H193.318C191.201 102.447 189.48 100.62 189.48 98.3728C189.48 96.1256 191.201 94.2982 193.318 94.2982H212.508C214.625 94.2982 216.346 96.1256 216.346 98.3728C216.346 100.62 214.625 102.447 212.508 102.447Z" fill="#E6E6E6"/>
<path d="M191.878 177.828C191.085 177.828 190.439 178.513 190.439 179.356C190.439 179.767 190.589 180.147 190.86 180.427C191.133 180.725 191.492 180.884 191.878 180.884H340.605C341.399 180.884 342.045 180.199 342.045 179.356C342.045 178.945 341.895 178.565 341.624 178.285C341.35 177.987 340.992 177.828 340.605 177.828H191.878Z" fill="#E6E6E6"/>
<path d="M239.855 177.319V181.393H191.878C191.351 181.393 190.871 181.169 190.525 180.792C190.17 180.426 189.959 179.916 189.959 179.356C189.959 178.235 190.823 177.319 191.878 177.319H239.855Z" fill="#3DD5F3"/>
<path d="M338.207 169.679H319.016C316.9 169.679 315.178 167.851 315.178 165.604C315.178 163.357 316.9 161.53 319.016 161.53H338.207C340.323 161.53 342.045 163.357 342.045 165.604C342.045 167.851 340.323 169.679 338.207 169.679Z" fill="#E6E6E6"/>
</g>
<defs>
<clipPath id="clip0_78_512">
<rect width="600" height="391" fill="white"/>
</clipPath>
</defs>
</svg>
