<svg width="600" height="448" viewBox="0 0 600 448" fill="none" xmlns="http://www.w3.org/2000/svg">
<g clip-path="url(#clip0_78_476)">
<path d="M233.783 124.366H0V0H233.783V124.366Z" fill="white"/>
<path d="M233.504 0.836548H0.836914V30.3944H233.504V0.836548Z" fill="#E4E4E4"/>
<path d="M233.783 124.366H0V0H233.783V124.366ZM1.67386 122.693H232.109V1.67308H1.67386V122.693Z" fill="#CACACA"/>
<path d="M105.471 55.0495C104.366 55.053 103.471 56.4877 103.474 58.254C103.476 60.0154 104.369 61.4424 105.471 61.4459H199.829C200.934 61.4424 201.828 60.0077 201.826 58.2414C201.824 56.48 200.931 55.0529 199.829 55.0495H105.471Z" fill="#E4E4E4"/>
<path d="M105.471 73.5823C104.366 73.5858 103.471 75.0205 103.474 76.7868C103.476 78.5482 104.369 79.9752 105.471 79.9787H199.829C200.934 79.9752 201.828 78.5405 201.826 76.7742C201.824 75.0128 200.931 73.5858 199.829 73.5823H105.471Z" fill="#E4E4E4"/>
<path d="M105.471 91.891C104.366 91.8945 103.471 93.3292 103.474 95.0955C103.476 96.8569 104.369 98.2839 105.471 98.2874H146.073C147.179 98.2839 148.073 96.8492 148.071 95.0829C148.069 93.3215 147.176 91.8944 146.073 91.891H105.471Z" fill="#E4E4E4"/>
<path d="M57.5613 102.019C71.7024 102.019 83.1661 90.5604 83.1661 76.4258C83.1661 62.2912 71.7024 50.8328 57.5613 50.8328C43.4201 50.8328 31.9564 62.2912 31.9564 76.4258C31.9564 90.5604 43.4201 102.019 57.5613 102.019Z" fill="#E4E4E4"/>
<path d="M512.202 124.366H278.419V0H512.202V124.366Z" fill="white"/>
<path d="M511.923 0.836548H279.256V30.3944H511.923V0.836548Z" fill="#E4E4E4"/>
<path d="M512.202 124.366H278.419V0H512.202V124.366ZM280.093 122.693H510.528V1.67308H280.093V122.693Z" fill="#CACACA"/>
<path d="M383.89 55.0495C382.785 55.053 381.89 56.4877 381.892 58.254C381.895 60.0154 382.788 61.4424 383.89 61.4459H478.248C479.353 61.4424 480.247 60.0077 480.245 58.2414C480.243 56.48 479.35 55.0529 478.248 55.0495H383.89Z" fill="#E4E4E4"/>
<path d="M383.89 73.5823C382.785 73.5858 381.89 75.0205 381.892 76.7868C381.895 78.5482 382.788 79.9752 383.89 79.9787H478.248C479.353 79.9752 480.247 78.5405 480.245 76.7742C480.243 75.0128 479.35 73.5858 478.248 73.5823H383.89Z" fill="#E4E4E4"/>
<path d="M383.89 91.891C382.785 91.8945 381.89 93.3292 381.892 95.0955C381.895 96.8569 382.788 98.2839 383.89 98.2874H424.492C425.598 98.2839 426.492 96.8492 426.49 95.0829C426.487 93.3215 425.594 91.8944 424.492 91.891H383.89Z" fill="#E4E4E4"/>
<path d="M335.98 102.019C350.121 102.019 361.585 90.5604 361.585 76.4258C361.585 62.2912 350.121 50.8328 335.98 50.8328C321.839 50.8328 310.375 62.2912 310.375 76.4258C310.375 90.5604 321.839 102.019 335.98 102.019Z" fill="#E4E4E4"/>
<path d="M404.207 246.259H107.994V88.6814H404.207V246.259Z" fill="white"/>
<path d="M403.854 89.7413H109.055V127.192H403.854V89.7413Z" fill="#0AA2C0"/>
<path d="M404.207 246.259H107.994V88.6814H404.207V246.259ZM110.115 244.139H402.087V90.8013H110.115V244.139Z" fill="#3F3D56"/>
<path d="M241.631 158.432C240.23 158.436 239.097 160.254 239.1 162.492C239.103 164.724 240.234 166.532 241.631 166.536H361.186C362.587 166.532 363.72 164.714 363.717 162.476C363.714 160.244 362.583 158.436 361.186 158.432H241.631Z" fill="#E4E4E4"/>
<path d="M241.631 181.913C240.23 181.918 239.097 183.736 239.1 185.974C239.103 188.206 240.234 190.014 241.631 190.018H361.186C362.587 190.014 363.72 188.196 363.717 185.958C363.714 183.726 362.583 181.918 361.186 181.913H241.631Z" fill="#E4E4E4"/>
<path d="M241.631 205.111C240.23 205.116 239.097 206.934 239.1 209.172C239.103 211.403 240.234 213.212 241.631 213.216H293.076C294.476 213.212 295.609 211.394 295.606 209.156C295.604 206.924 294.472 205.116 293.076 205.111H241.631Z" fill="#E4E4E4"/>
<path d="M180.927 217.944C198.845 217.944 213.37 203.426 213.37 185.516C213.37 167.607 198.845 153.089 180.927 153.089C163.01 153.089 148.484 167.607 148.484 185.516C148.484 203.426 163.01 217.944 180.927 217.944Z" fill="#E4E4E4"/>
<path d="M531.17 428.973L523.253 432.499L505.881 403.654L517.567 398.451L531.17 428.973Z" fill="#FFB6B6"/>
<path d="M536.608 435.745L511.081 447.112L510.937 446.79C509.763 444.156 509.684 441.163 510.717 438.471C511.75 435.779 513.811 433.607 516.446 432.434L516.447 432.433L532.038 425.49L536.608 435.745Z" fill="#2F2E41"/>
<path d="M491.272 267.572C492.072 266.802 492.693 265.866 493.092 264.831C493.491 263.795 493.658 262.685 493.581 261.578C493.504 260.47 493.185 259.394 492.647 258.423C492.108 257.452 491.364 256.612 490.465 255.96L482.078 187.33L468.998 190.55L479.477 258.044C478.482 259.625 478.101 261.516 478.408 263.36C478.714 265.203 479.687 266.869 481.141 268.044C482.594 269.218 484.429 269.819 486.296 269.732C488.163 269.645 489.934 268.876 491.272 267.572Z" fill="#FFB6B6"/>
<path d="M486.797 198.386C486.203 198.921 485.454 199.252 484.658 199.332L467.546 201.056C467.009 201.11 466.466 201.048 465.955 200.874C465.444 200.699 464.976 200.417 464.584 200.046C464.192 199.674 463.885 199.223 463.683 198.722C463.481 198.221 463.39 197.683 463.415 197.144L464.214 180.024C464.088 178.758 464.214 177.48 464.587 176.263C464.959 175.047 465.57 173.916 466.384 172.938C467.612 171.437 469.258 170.333 471.114 169.767C472.969 169.2 474.952 169.196 476.809 169.756C478.667 170.315 480.317 171.412 481.552 172.909C482.786 174.405 483.548 176.234 483.743 178.164L487.925 194.674C488.093 195.337 488.076 196.033 487.877 196.687C487.678 197.341 487.305 197.928 486.797 198.386Z" fill="#0AA2C0"/>
<path d="M476.138 242.08L428.559 232.626L428.242 225.986L428.249 225.944L433.378 191.886C432.688 190.451 426.587 177.019 435.451 169.489C437.541 167.709 439.47 165.747 441.215 163.627C443.98 160.168 447.543 157.432 451.599 155.652C455.655 153.873 460.082 153.103 464.501 153.41C467.239 153.632 469.896 154.444 472.291 155.79C474.685 157.136 476.76 158.984 478.372 161.207C481.895 165.932 483.488 171.819 482.83 177.674L476.138 242.08Z" fill="#0AA2C0"/>
<path d="M428.121 438.715L419.455 438.714L415.331 405.299L428.124 405.3L428.121 438.715Z" fill="#FFB6B6"/>
<path d="M430.332 447.112L402.386 447.111V446.758C402.386 443.874 403.532 441.109 405.572 439.07C407.612 437.031 410.379 435.886 413.263 435.886L430.333 435.886L430.332 447.112Z" fill="#2F2E41"/>
<path d="M414.812 425.741L412.928 286.597C412.312 265.807 417.756 245.286 428.597 227.533C428.597 227.533 470.661 227.18 477.377 241.666L527.571 416.202L513.432 422.562L453.341 291.836L431.779 426.448L414.812 425.741Z" fill="#2F2E41"/>
<path d="M407.94 192.582C408.238 192.904 408.51 193.25 408.754 193.615L448.13 193.658L452.935 185.391L466.366 191.008L459.282 206.471C458.71 207.72 457.748 208.75 456.54 209.406C455.332 210.062 453.944 210.308 452.585 210.109L408.262 203.605C407.18 204.905 405.726 205.845 404.096 206.3C402.466 206.754 400.736 206.702 399.136 206.15C397.536 205.598 396.143 204.572 395.14 203.209C394.138 201.846 393.575 200.21 393.525 198.519C393.476 196.828 393.943 195.162 394.864 193.743C395.784 192.323 397.116 191.218 398.681 190.573C400.245 189.929 401.97 189.776 403.624 190.135C405.278 190.493 406.783 191.347 407.94 192.582Z" fill="#FFB6B6"/>
<path d="M444.504 194.519L450.24 165.085C450.839 162.015 452.555 159.275 455.058 157.396C457.56 155.517 460.671 154.632 463.789 154.913C465.698 155.086 467.544 155.689 469.186 156.679C470.827 157.67 472.222 159.02 473.265 160.628C474.308 162.236 474.971 164.061 475.204 165.963C475.438 167.865 475.236 169.795 474.613 171.608L465.648 197.699L444.504 194.519Z" fill="#0AA2C0"/>
<path d="M464.496 146.579C474.086 146.579 481.86 138.808 481.86 129.223C481.86 119.638 474.086 111.868 464.496 111.868C454.906 111.868 447.133 119.638 447.133 129.223C447.133 138.808 454.906 146.579 464.496 146.579Z" fill="#FFB6B6"/>
<path d="M443.443 119.42H471.015V107.407C464.963 105.004 459.041 102.96 455.462 107.407C452.274 107.407 449.217 108.673 446.963 110.925C444.71 113.178 443.443 116.234 443.443 119.42Z" fill="#2F2E41"/>
<path d="M472.541 105.287C489.024 105.287 493.637 125.938 493.637 137.588C493.637 144.085 490.697 146.409 486.078 147.195L484.447 138.498L480.626 147.569C479.328 147.576 477.965 147.551 476.552 147.524L475.256 144.858L472.367 147.477C460.797 147.494 451.445 149.18 451.445 137.588C451.445 125.938 455.491 105.287 472.541 105.287Z" fill="#2F2E41"/>
<path d="M599.293 448H329.944C329.757 448 329.577 447.926 329.444 447.793C329.312 447.66 329.237 447.481 329.237 447.293C329.237 447.106 329.312 446.926 329.444 446.794C329.577 446.661 329.757 446.587 329.944 446.587H599.293C599.481 446.587 599.66 446.661 599.793 446.794C599.926 446.926 600 447.106 600 447.293C600 447.481 599.926 447.66 599.793 447.793C599.66 447.926 599.481 448 599.293 448Z" fill="#CACACA"/>
</g>
<defs>
<clipPath id="clip0_78_476">
<rect width="600" height="448" fill="white"/>
</clipPath>
</defs>
</svg>
