<svg width="656" height="437" viewBox="0 0 656 437" fill="none" xmlns="http://www.w3.org/2000/svg">
<g clip-path="url(#clip0_26_748)">
<path d="M205.97 134.681C235.277 98.0351 297.556 82.703 339.19 137.638C374.505 184.232 389.891 186.898 416.733 195.762C434.456 201.619 463.459 209.553 446.559 254.874C424.44 314.193 315.015 330.215 255.185 308.073C197.969 286.902 152.781 201.18 205.97 134.681Z" fill="url(#paint0_linear_26_748)"/>
<path d="M340.209 112.166C353.967 136.211 380.024 167.18 423.405 179.743C466.787 192.3 474.513 166.584 461.436 136.69C448.36 106.796 416.271 80.4765 376.457 74.4961C336.642 68.5165 328.916 92.4299 340.209 112.166Z" fill="url(#paint1_linear_26_748)"/>
<path d="M509.385 354.671V128.911C509.385 124.888 506.122 121.627 502.097 121.627L146.658 121.627C142.633 121.627 139.369 124.888 139.369 128.911V354.671C139.369 358.694 142.633 361.955 146.658 361.955H502.097C506.122 361.955 509.385 358.694 509.385 354.671Z" fill="#3DD5F3"/>
<path d="M569.991 350.328H79.4489C76.2285 350.328 73.6178 352.937 73.6178 356.155C73.6178 359.373 76.2285 361.982 79.4489 361.982H569.991C573.212 361.982 575.822 359.373 575.822 356.155C575.822 352.937 573.212 350.328 569.991 350.328Z" fill="#E1E4E5"/>
<path d="M535.706 178.032C535.706 178.032 526.176 175.476 522.89 197.308C519.605 219.139 519.582 231.098 519.582 231.098C519.582 231.098 518.375 235.845 514.832 234.183C511.289 232.521 505.191 226.502 501.056 229.327C496.768 232.26 496.976 238.062 500.469 245.528C503.963 252.995 511.015 269.62 511.647 271.13C512.271 272.606 512.142 275.137 509.547 274.389C506.953 273.641 490.307 264.18 486.291 272.337C482.265 280.497 495.422 299.692 496.817 301.815C498.213 303.939 498.095 305.091 497.18 306.038C496.266 306.986 490.967 303.277 486.126 300.776C481.285 298.275 475.226 296.233 473.301 301.135C471.375 306.036 475.661 322.3 499.452 343.1L511.106 352.018L524.814 346.591C553.438 333.193 562.068 318.75 561.575 313.508C561.082 308.267 554.698 308.553 549.348 309.615C543.999 310.676 537.881 312.77 537.266 311.606C536.649 310.442 536.849 309.306 538.779 307.65C540.71 305.994 558.671 291.198 557.066 282.239C555.464 273.287 536.847 277.769 534.147 277.761C531.449 277.762 532.033 275.298 533.038 274.051C534.065 272.78 545.458 258.755 550.881 252.547C556.306 246.347 558.112 240.823 554.806 236.819C551.622 232.953 544.086 237.059 540.223 237.676C536.36 238.292 536.518 233.389 536.518 233.389C536.518 233.389 539.82 221.892 542.71 200.004C545.601 178.117 535.494 177.984 535.494 177.984" fill="#E1E4E5"/>
<path d="M510.863 348.95C513.043 332.883 516.247 310.712 519.878 286.234C523.502 261.767 526.757 239.611 529.035 223.555C530.165 215.544 531.076 209.054 531.71 204.545C532.024 202.315 532.27 200.578 532.442 199.374C532.525 198.801 532.596 198.355 532.641 198.029C532.694 197.731 532.727 197.57 532.727 197.57C532.727 197.57 532.721 197.724 532.691 198.035C532.654 198.359 532.603 198.809 532.54 199.386C532.388 200.594 532.171 202.332 531.897 204.571C531.336 209.069 530.477 215.574 529.382 223.605C527.201 239.673 523.994 261.834 520.373 286.31C516.751 310.786 513.487 332.944 511.217 348.998" fill="white"/>
<path d="M509.25 238.099C509.283 238.081 509.513 238.37 509.928 238.924C510.339 239.469 510.907 240.275 511.595 241.278C512.971 243.292 514.801 246.115 516.762 249.283C518.671 252.399 520.406 255.219 521.741 257.397C522.34 258.357 522.844 259.171 523.262 259.847C523.626 260.424 523.809 260.754 523.777 260.772C523.743 260.791 523.505 260.503 523.093 259.958C522.525 259.181 521.975 258.391 521.441 257.59C520.08 255.563 518.289 252.71 516.34 249.549L511.306 241.478C510.707 240.519 510.194 239.707 509.775 239.031C509.409 238.445 509.226 238.115 509.25 238.099ZM525.134 260.59C525.056 260.477 530.72 256.445 537.791 251.599C544.86 246.745 550.66 242.904 550.738 243.016C550.815 243.128 545.149 247.151 538.08 252.006C531.003 256.863 525.211 260.702 525.134 260.59ZM517.873 297.925C517.864 297.89 518.227 297.755 518.877 297.523C519.636 297.273 520.571 296.966 521.669 296.596C524.024 295.813 527.282 294.713 530.828 293.375C534.376 292.045 537.548 290.73 539.845 289.764C540.913 289.317 541.817 288.932 542.559 288.62C543.201 288.353 543.566 288.227 543.582 288.251C543.6 288.284 543.26 288.47 542.645 288.796C541.769 289.245 540.883 289.676 539.988 290.086C537.044 291.449 534.048 292.701 531.009 293.839C527.97 294.98 524.89 296.01 521.776 296.928C520.578 297.277 519.603 297.538 518.936 297.707C518.26 297.879 517.883 297.961 517.873 297.925ZM499.031 280.736C499.053 280.711 499.337 280.92 499.844 281.325C500.343 281.733 501.055 282.33 501.929 283.074C504.201 285.023 506.455 286.992 508.691 288.982C510.931 290.969 513.154 292.975 515.359 295C516.205 295.78 516.879 296.416 517.343 296.871C517.804 297.317 518.047 297.585 518.025 297.609C518.004 297.634 517.719 297.425 517.211 297.02C516.713 296.612 516.001 296.015 515.128 295.271C512.856 293.322 510.602 291.353 508.366 289.363C505.746 287.036 503.389 284.905 501.706 283.343C501.036 282.729 500.374 282.105 499.722 281.472C499.252 281.028 499 280.763 499.031 280.736ZM488.431 312.881C488.453 312.856 488.82 313.128 489.463 313.649C490.173 314.237 491.076 314.983 492.143 315.883C494.393 317.788 497.478 320.436 500.865 323.393C504.252 326.35 507.302 329.046 509.492 331.014C510.523 331.952 511.391 332.746 512.072 333.371C512.669 333.932 512.996 334.262 512.974 334.287C512.952 334.312 512.584 334.04 511.941 333.519C511.232 332.931 510.329 332.185 509.261 331.285C506.335 328.803 503.428 326.299 500.54 323.775C497.153 320.818 494.103 318.121 491.912 316.154C491.051 315.371 490.191 314.585 489.333 313.797C488.726 313.239 488.409 312.906 488.431 312.881ZM512.526 333.609C512.517 333.574 512.969 333.387 513.788 333.073C514.704 332.733 515.878 332.294 517.288 331.775C520.241 330.671 524.325 329.14 528.777 327.322C532.583 325.771 536.363 324.157 540.115 322.482C541.255 321.982 542.393 321.478 543.529 320.97C544.338 320.62 544.791 320.432 544.809 320.466C544.828 320.499 544.398 320.738 543.615 321.146C542.831 321.556 541.683 322.129 540.259 322.805C536.545 324.574 532.779 326.235 528.968 327.783C525.156 329.335 521.3 330.776 517.405 332.104C516.224 332.506 515.038 332.89 513.847 333.256C513.012 333.508 512.541 333.633 512.526 333.609Z" fill="white"/>
<path d="M102.322 262.854C104.581 275.518 117.734 286.655 117.734 286.655C117.734 286.655 128.517 271.247 126.258 258.584C123.991 245.918 116.808 236.608 110.196 237.791C103.586 238.965 100.064 250.19 102.322 262.854ZM131.282 284.852C122.466 294.22 121.38 311.41 121.38 311.41C121.38 311.41 140.181 310.867 148.999 301.489C157.818 292.112 160.999 280.795 156.1 276.201C151.211 271.61 140.099 275.483 131.282 284.852ZM120.747 349.73C120.35 351.928 120.193 353.467 120.152 353.859C120.149 353.904 120.14 353.938 120.144 353.958L120.142 353.966C120.142 353.966 120.15 353.968 120.153 353.96L120.215 353.967C120.418 353.958 121.028 353.938 121.948 353.883C126.873 353.565 140.643 352.031 147.944 344.56C156.936 335.357 160.323 324.087 155.521 319.408C150.72 314.722 139.537 318.384 130.545 327.587C126.521 331.711 124.011 337.421 122.479 342.487C121.757 344.865 121.178 347.283 120.747 349.73ZM93.2015 308.089C104.404 314.426 121.377 311.419 121.377 311.419C121.377 311.419 116.385 293.287 105.183 286.952C93.9814 280.615 82.2237 280.21 78.9117 286.043C75.5981 291.884 82 301.754 93.2015 308.089Z" fill="#E1E4E5"/>
<path d="M94.4597 347.652C104.937 355.12 122.129 353.891 122.129 353.891C122.129 353.891 119.052 335.339 108.575 327.872C98.0976 320.403 86.4397 318.773 82.5402 324.238C78.6413 329.703 83.9739 340.182 94.4597 347.652Z" fill="#E1E4E5"/>
<path d="M115.515 281.453C115.576 281.633 120.536 299.135 118.831 343.64C118.7 347.048 118.537 350.454 118.342 353.859L118.557 353.87L120.145 353.957L120.147 353.949L120.156 353.951L120.218 353.958C120.421 353.949 121.031 353.929 121.951 353.874C122.179 349.885 122.354 346.092 122.482 342.478C124.095 298.25 119.194 281.176 118.977 280.414L115.515 281.453Z" fill="#E1E4E5"/>
<path d="M294.036 322.762C294.036 328.883 298.995 333.854 305.134 333.854H351.021C357.145 333.854 362.119 328.899 362.119 322.762C362.119 316.643 357.161 311.671 351.021 311.671H305.134C298.995 311.671 294.036 316.626 294.036 322.762Z" fill="white"/>
<path d="M337.822 322.796C337.822 324.425 339.136 325.756 340.767 325.756C342.398 325.756 343.729 324.442 343.729 322.813C343.729 321.183 342.414 319.852 340.784 319.852C340.395 319.848 340.01 319.922 339.65 320.068C339.29 320.214 338.962 320.431 338.687 320.705C338.411 320.979 338.193 321.305 338.044 321.664C337.896 322.023 337.82 322.407 337.822 322.796ZM325.123 322.746C325.123 324.376 326.438 325.706 328.068 325.706C329.7 325.706 331.031 324.392 331.031 322.762C331.031 321.132 329.717 319.802 328.085 319.802C326.454 319.786 325.123 321.116 325.123 322.746ZM312.426 322.713C312.426 324.342 313.741 325.673 315.371 325.673C317.003 325.673 318.333 324.359 318.333 322.729C318.333 321.1 317.019 319.769 315.388 319.769C314.999 319.765 314.614 319.838 314.254 319.985C313.894 320.131 313.566 320.348 313.29 320.622C313.015 320.896 312.796 321.221 312.648 321.58C312.5 321.94 312.424 322.324 312.426 322.713Z" fill="#E1E4E5"/>
<path d="M359.465 295.789H438.776C439.302 295.789 439.823 295.686 440.31 295.485C440.796 295.284 441.238 294.989 441.61 294.617C441.982 294.245 442.278 293.803 442.479 293.317C442.68 292.831 442.783 292.31 442.783 291.784V265.39C442.783 264.864 442.68 264.343 442.479 263.857C442.277 263.371 441.982 262.93 441.61 262.558C441.238 262.186 440.796 261.891 440.31 261.69C439.823 261.489 439.302 261.386 438.776 261.386H359.465C358.939 261.386 358.418 261.489 357.932 261.69C357.445 261.891 357.003 262.186 356.631 262.558C356.259 262.93 355.964 263.371 355.763 263.857C355.562 264.343 355.458 264.864 355.459 265.39V291.796C355.459 292.321 355.564 292.841 355.765 293.326C355.967 293.81 356.262 294.251 356.634 294.622C357.007 294.992 357.448 295.286 357.934 295.486C358.42 295.687 358.94 295.789 359.465 295.789Z" fill="white"/>
<path d="M427.416 274.572H369.383M389.451 283.71H369.573" stroke="#3DD5F3" stroke-width="3.299" stroke-miterlimit="10" stroke-linecap="round" stroke-linejoin="round"/>
<path d="M430.516 291.214V306.782L410.66 291.214H430.516ZM341.705 232.933H421.014C421.541 232.934 422.062 232.831 422.548 232.63C423.035 232.429 423.477 232.134 423.849 231.762C424.221 231.39 424.517 230.949 424.718 230.463C424.919 229.977 425.022 229.456 425.022 228.93V202.536C425.022 202.01 424.919 201.489 424.718 201.003C424.516 200.517 424.221 200.075 423.849 199.703C423.477 199.331 423.035 199.037 422.548 198.836C422.062 198.635 421.541 198.531 421.014 198.532H341.705C341.178 198.532 340.657 198.635 340.171 198.836C339.684 199.037 339.243 199.332 338.87 199.704C338.498 200.075 338.203 200.517 338.002 201.003C337.801 201.489 337.697 202.01 337.698 202.536V228.941C337.698 229.466 337.803 229.986 338.004 230.47C338.206 230.955 338.501 231.396 338.873 231.767C339.245 232.137 339.687 232.431 340.173 232.631C340.659 232.832 341.179 232.934 341.705 232.933Z" fill="white"/>
<path d="M409.655 211.718H351.622M371.69 220.855H351.812" stroke="#3DD5F3" stroke-width="3.299" stroke-miterlimit="10" stroke-linecap="round" stroke-linejoin="round"/>
<path d="M412.755 228.359V243.928L392.9 228.359H412.755ZM290.029 282.478H210.72C210.193 282.479 209.672 282.376 209.185 282.175C208.699 281.974 208.257 281.679 207.885 281.307C207.512 280.935 207.217 280.493 207.016 280.007C206.815 279.521 206.712 279 206.712 278.474V252.08C206.712 251.554 206.815 251.033 207.016 250.547C207.217 250.061 207.513 249.619 207.885 249.247C208.257 248.876 208.699 248.581 209.186 248.38C209.672 248.179 210.193 248.076 210.72 248.076H290.029C290.556 248.076 291.077 248.179 291.563 248.38C292.049 248.581 292.491 248.876 292.863 249.248C293.236 249.62 293.531 250.061 293.732 250.547C293.933 251.033 294.036 251.554 294.036 252.08V278.486C294.035 279.011 293.931 279.53 293.729 280.015C293.528 280.5 293.232 280.94 292.86 281.311C292.488 281.682 292.047 281.976 291.561 282.176C291.075 282.376 290.555 282.479 290.029 282.478Z" fill="white"/>
<path d="M280.112 261.262H222.079M242.147 270.4H222.269" stroke="#3DD5F3" stroke-width="3.299" stroke-miterlimit="10" stroke-linecap="round" stroke-linejoin="round"/>
<path d="M218.979 277.904V293.472L238.834 277.904H218.979ZM297.429 207.792H218.119C217.593 207.793 217.072 207.689 216.585 207.488C216.099 207.287 215.657 206.992 215.285 206.62C214.913 206.248 214.617 205.807 214.416 205.321C214.215 204.835 214.112 204.314 214.113 203.788V177.394C214.112 176.868 214.215 176.347 214.417 175.861C214.618 175.375 214.913 174.933 215.285 174.562C215.657 174.19 216.099 173.895 216.585 173.694C217.072 173.493 217.593 173.389 218.119 173.39H297.429C297.955 173.389 298.477 173.493 298.963 173.694C299.449 173.895 299.891 174.189 300.264 174.561C300.636 174.933 300.931 175.375 301.132 175.861C301.333 176.347 301.437 176.868 301.436 177.394V203.799C301.436 206.003 299.645 207.792 297.429 207.792Z" fill="white"/>
<path d="M287.512 186.576H229.479M249.547 195.713H229.669" stroke="#3DD5F3" stroke-width="3.299" stroke-miterlimit="10" stroke-linecap="round" stroke-linejoin="round"/>
<path d="M226.38 203.217V218.786L246.235 203.217H226.38Z" fill="white"/>
<path d="M328 145.667C330.818 145.667 333.102 143.384 333.102 140.568C333.102 137.753 330.818 135.47 328 135.47C325.182 135.47 322.898 137.753 322.898 140.568C322.898 143.384 325.182 145.667 328 145.667Z" fill="white"/>
<path fill-rule="evenodd" clip-rule="evenodd" d="M103.683 180.839H105.001C105.153 180.839 105.3 180.778 105.408 180.67C105.516 180.563 105.576 180.416 105.577 180.264V178.947C105.577 178.795 105.516 178.648 105.408 178.54C105.3 178.432 105.154 178.372 105.001 178.372H103.683C103.531 178.373 103.385 178.433 103.277 178.541C103.169 178.649 103.108 178.795 103.108 178.947V180.264C103.108 180.34 103.122 180.414 103.151 180.484C103.18 180.554 103.222 180.617 103.276 180.671C103.329 180.724 103.393 180.766 103.463 180.795C103.533 180.824 103.607 180.839 103.683 180.839ZM108.252 180.839H109.57C109.887 180.839 110.146 180.579 110.146 180.264V178.947C110.146 178.795 110.085 178.648 109.977 178.54C109.869 178.432 109.723 178.372 109.57 178.372H108.252C108.1 178.373 107.954 178.433 107.846 178.541C107.739 178.649 107.678 178.795 107.677 178.947V180.264C107.677 180.579 107.937 180.839 108.252 180.839ZM112.825 180.839H114.143C114.46 180.839 114.719 180.579 114.719 180.264V178.947C114.719 178.795 114.658 178.648 114.55 178.54C114.442 178.432 114.296 178.372 114.143 178.372H112.825C112.673 178.373 112.527 178.433 112.419 178.541C112.312 178.649 112.251 178.795 112.25 178.947V180.264C112.25 180.34 112.265 180.414 112.294 180.484C112.323 180.554 112.365 180.617 112.418 180.671C112.472 180.724 112.535 180.766 112.605 180.795C112.675 180.824 112.75 180.839 112.825 180.839ZM117.396 180.839H118.714C118.866 180.838 119.012 180.777 119.12 180.669C119.228 180.562 119.288 180.416 119.289 180.264V178.947C119.289 178.795 119.229 178.648 119.121 178.541C119.013 178.433 118.867 178.372 118.714 178.372H117.396C117.243 178.372 117.097 178.432 116.988 178.54C116.88 178.648 116.819 178.794 116.818 178.947V180.264C116.82 180.416 116.881 180.562 116.989 180.67C117.098 180.777 117.244 180.838 117.396 180.839ZM121.966 180.839H123.284C123.436 180.839 123.583 180.778 123.691 180.671C123.8 180.563 123.861 180.417 123.862 180.264V178.947C123.861 178.871 123.846 178.796 123.817 178.727C123.788 178.657 123.746 178.593 123.692 178.54C123.638 178.486 123.575 178.444 123.504 178.415C123.434 178.386 123.359 178.372 123.284 178.372H121.966C121.813 178.372 121.667 178.433 121.559 178.541C121.452 178.649 121.391 178.795 121.391 178.947V180.264C121.391 180.579 121.649 180.839 121.966 180.839ZM108.42 175.86H109.738C110.054 175.86 110.314 175.6 110.314 175.284V173.965C110.313 173.812 110.252 173.666 110.144 173.559C110.036 173.451 109.89 173.391 109.738 173.39H108.42C108.268 173.39 108.121 173.451 108.014 173.558C107.906 173.666 107.845 173.812 107.845 173.965V175.282C107.844 175.358 107.859 175.433 107.888 175.503C107.916 175.573 107.959 175.637 108.012 175.691C108.066 175.744 108.129 175.787 108.199 175.816C108.269 175.845 108.344 175.86 108.42 175.86ZM112.99 175.86H114.308C114.624 175.86 114.884 175.6 114.884 175.284V173.965C114.883 173.812 114.822 173.666 114.714 173.559C114.606 173.451 114.46 173.391 114.308 173.39H112.99C112.838 173.391 112.692 173.452 112.584 173.559C112.477 173.667 112.416 173.812 112.415 173.965V175.282C112.415 175.358 112.429 175.433 112.458 175.503C112.487 175.573 112.529 175.637 112.582 175.691C112.636 175.744 112.699 175.787 112.769 175.816C112.839 175.845 112.914 175.86 112.99 175.86ZM117.56 175.86H118.878C119.031 175.86 119.178 175.799 119.286 175.691C119.394 175.583 119.455 175.437 119.456 175.284V173.965C119.455 173.812 119.394 173.666 119.286 173.558C119.178 173.45 119.031 173.39 118.878 173.39H117.56C117.408 173.391 117.262 173.451 117.154 173.559C117.047 173.667 116.986 173.812 116.985 173.965V175.282C116.985 175.6 117.244 175.86 117.56 175.86ZM112.825 186.188H114.143C114.46 186.188 114.719 185.929 114.719 185.614V184.296C114.719 184.144 114.658 183.997 114.55 183.89C114.442 183.782 114.296 183.721 114.143 183.721H112.825C112.673 183.722 112.527 183.783 112.42 183.891C112.312 183.998 112.251 184.144 112.25 184.296V185.614C112.25 185.689 112.265 185.764 112.294 185.834C112.323 185.904 112.365 185.967 112.418 186.02C112.472 186.074 112.535 186.116 112.605 186.145C112.675 186.174 112.75 186.188 112.825 186.188ZM117.396 186.188H118.714C118.866 186.187 119.012 186.127 119.12 186.019C119.228 185.911 119.288 185.766 119.289 185.614V184.296C119.289 184.144 119.228 183.998 119.121 183.89C119.013 183.782 118.867 183.722 118.714 183.721H117.396C117.244 183.721 117.097 183.782 116.989 183.89C116.88 183.997 116.819 184.143 116.818 184.296V185.614C116.82 185.766 116.881 185.912 116.989 186.019C117.098 186.127 117.244 186.187 117.396 186.188ZM545.105 140.907H543.787C543.634 140.907 543.488 140.846 543.38 140.739C543.273 140.631 543.212 140.485 543.212 140.332V139.016C543.212 138.863 543.273 138.717 543.38 138.609C543.488 138.502 543.634 138.441 543.787 138.441H545.105C545.421 138.441 545.68 138.699 545.68 139.016V140.332C545.681 140.408 545.666 140.483 545.637 140.553C545.608 140.622 545.565 140.686 545.512 140.739C545.458 140.793 545.395 140.835 545.325 140.864C545.255 140.893 545.18 140.907 545.105 140.907ZM540.535 140.907H539.217C539.065 140.907 538.919 140.846 538.811 140.738C538.703 140.631 538.642 140.485 538.642 140.332V139.016C538.642 138.863 538.703 138.717 538.811 138.609C538.918 138.501 539.065 138.441 539.217 138.441H540.535C540.851 138.441 541.11 138.699 541.11 139.016V140.332C541.11 140.485 541.049 140.63 540.941 140.738C540.834 140.846 540.688 140.906 540.535 140.907ZM535.961 140.907H534.644C534.491 140.906 534.345 140.846 534.238 140.738C534.13 140.63 534.069 140.485 534.069 140.332V139.016C534.069 138.863 534.129 138.717 534.237 138.609C534.345 138.502 534.491 138.441 534.644 138.441H535.961C536.278 138.441 536.537 138.699 536.537 139.016V140.332C536.537 140.408 536.523 140.483 536.494 140.553C536.465 140.622 536.422 140.686 536.369 140.739C536.315 140.793 536.252 140.835 536.182 140.864C536.112 140.893 536.037 140.907 535.961 140.907ZM531.392 140.907H530.074C529.922 140.907 529.776 140.846 529.668 140.738C529.56 140.631 529.499 140.485 529.498 140.332V139.016C529.499 138.863 529.559 138.717 529.667 138.609C529.775 138.501 529.922 138.441 530.074 138.441H531.392C531.711 138.441 531.97 138.699 531.97 139.016V140.332C531.968 140.485 531.907 140.63 531.799 140.738C531.691 140.845 531.545 140.906 531.392 140.907ZM526.822 140.907H525.504C525.351 140.907 525.205 140.847 525.096 140.739C524.988 140.631 524.927 140.485 524.926 140.332V139.016C524.926 138.94 524.941 138.865 524.97 138.795C524.999 138.725 525.042 138.662 525.096 138.608C525.15 138.555 525.213 138.513 525.283 138.484C525.353 138.455 525.428 138.441 525.504 138.441H526.822C527.138 138.441 527.397 138.699 527.397 139.016V140.332C527.397 140.485 527.336 140.631 527.228 140.738C527.12 140.846 526.974 140.907 526.822 140.907ZM540.368 135.928H539.05C538.897 135.928 538.752 135.867 538.644 135.759C538.536 135.652 538.475 135.506 538.475 135.353V134.034C538.475 133.718 538.733 133.458 539.05 133.458H540.368C540.52 133.458 540.667 133.519 540.775 133.627C540.883 133.735 540.943 133.881 540.943 134.034V135.351C540.944 135.426 540.929 135.501 540.9 135.571C540.871 135.641 540.829 135.705 540.776 135.759C540.722 135.813 540.658 135.855 540.589 135.884C540.518 135.913 540.443 135.928 540.368 135.928ZM535.798 135.928H534.48C534.327 135.928 534.181 135.867 534.073 135.759C533.966 135.652 533.905 135.506 533.904 135.353V134.034C533.904 133.718 534.163 133.458 534.48 133.458H535.798C536.113 133.458 536.373 133.718 536.373 134.034V135.351C536.373 135.426 536.359 135.501 536.33 135.572C536.301 135.642 536.259 135.705 536.205 135.759C536.152 135.813 536.088 135.855 536.018 135.884C535.948 135.913 535.873 135.928 535.798 135.928ZM531.227 135.928H529.91C529.757 135.928 529.61 135.868 529.502 135.76C529.394 135.652 529.332 135.506 529.332 135.353V134.034C529.332 133.718 529.591 133.458 529.91 133.458H531.227C531.544 133.458 531.802 133.718 531.802 134.034V135.351C531.802 135.503 531.742 135.65 531.634 135.758C531.526 135.866 531.38 135.927 531.227 135.928ZM535.961 146.257H534.644C534.491 146.256 534.346 146.195 534.238 146.087C534.13 145.98 534.069 145.834 534.069 145.682V144.365C534.069 144.213 534.129 144.066 534.237 143.959C534.345 143.851 534.491 143.79 534.644 143.79H535.961C536.278 143.79 536.537 144.049 536.537 144.365V145.682C536.537 145.758 536.523 145.832 536.494 145.902C536.465 145.972 536.422 146.035 536.369 146.089C536.315 146.142 536.252 146.185 536.182 146.213C536.112 146.242 536.037 146.257 535.961 146.257ZM531.392 146.257H530.074C529.922 146.256 529.776 146.195 529.668 146.088C529.56 145.98 529.499 145.834 529.498 145.682V144.365C529.498 144.213 529.559 144.066 529.667 143.958C529.775 143.85 529.922 143.79 530.074 143.79H531.392C531.711 143.79 531.97 144.049 531.97 144.365V145.682C531.968 145.834 531.907 145.98 531.799 146.087C531.69 146.195 531.545 146.256 531.392 146.257Z" fill="#E1E4E5"/>
</g>
<defs>
<linearGradient id="paint0_linear_26_748" x1="322.721" y1="438.646" x2="317.383" y2="-133.255" gradientUnits="userSpaceOnUse">
<stop stop-color="white"/>
<stop offset="1" stop-color="#EEEEEE"/>
</linearGradient>
<linearGradient id="paint1_linear_26_748" x1="404.15" y1="244.362" x2="401.346" y2="-45.5041" gradientUnits="userSpaceOnUse">
<stop stop-color="white"/>
<stop offset="1" stop-color="#EEEEEE"/>
</linearGradient>
<clipPath id="clip0_26_748">
<rect width="656" height="437" fill="white"/>
</clipPath>
</defs>
</svg>
