<svg width="22" height="22" viewBox="0 0 22 22" fill="none" xmlns="http://www.w3.org/2000/svg">
<g clip-path="url(#clip0_46_82)">
<path d="M16.1453 14.2232C17.4767 12.4064 18.073 10.1538 17.8149 7.91625C17.5569 5.67865 16.4635 3.62101 14.7534 2.15497C13.0434 0.688935 10.8429 -0.0773764 8.59216 0.00934918C6.34141 0.0960748 4.20639 1.02944 2.61426 2.62272C1.02212 4.21599 0.0902833 6.35167 0.00516828 8.60249C-0.0799467 10.8533 0.687939 13.0533 2.1552 14.7622C3.62246 16.4712 5.68089 17.5631 7.91867 17.8196C10.1564 18.0761 12.4085 17.4781 14.2244 16.1454H14.223C14.2643 16.2004 14.3083 16.2527 14.3578 16.3035L19.6515 21.5973C19.9093 21.8553 20.2591 22.0003 20.6238 22.0004C20.9886 22.0006 21.3384 21.8558 21.5965 21.598C21.8545 21.3402 21.9995 20.9904 21.9996 20.6257C21.9997 20.2609 21.855 19.911 21.5971 19.653L16.3034 14.3593C16.2542 14.3095 16.2014 14.2649 16.1453 14.2232ZM16.5 8.93767C16.5 9.93079 16.3044 10.9142 15.9244 11.8317C15.5443 12.7492 14.9873 13.5829 14.285 14.2852C13.5828 14.9874 12.7491 15.5445 11.8316 15.9245C10.914 16.3046 9.93064 16.5002 8.93751 16.5002C7.94439 16.5002 6.961 16.3046 6.04347 15.9245C5.12595 15.5445 4.29226 14.9874 3.59002 14.2852C2.88778 13.5829 2.33073 12.7492 1.95068 11.8317C1.57062 10.9142 1.37501 9.93079 1.37501 8.93767C1.37501 6.93197 2.17178 5.00842 3.59002 3.59017C5.00826 2.17193 6.93181 1.37517 8.93751 1.37517C10.9432 1.37517 12.8668 2.17193 14.285 3.59017C15.7033 5.00842 16.5 6.93197 16.5 8.93767Z" fill="white"/>
</g>
<defs>
<clipPath id="clip0_46_82">
<rect width="22" height="22" fill="white"/>
</clipPath>
</defs>
</svg>
