<svg width="387" height="316" viewBox="0 0 387 316" fill="none" xmlns="http://www.w3.org/2000/svg">
<g clip-path="url(#clip0_19_752)">
<path d="M313.875 135.967C341.314 136.464 366.071 137.706 369.063 139.707C377.158 145.122 375.134 249.826 369.063 253.436C362.992 257.046 340.795 258.609 340.795 258.609C340.795 258.609 341.941 285.048 339.917 290.464C337.894 295.879 289.093 258.609 289.093 258.609C289.093 258.609 210.332 257.192 204.261 253.582C200.735 251.485 196.962 218.68 197.532 187.638" stroke="#E1E4E5" stroke-width="5.81" stroke-linecap="round"/>
<path d="M308.243 30.1516C300.907 23.2976 118.889 23.1138 109.107 29.9673C99.3262 36.8208 101.772 169.336 109.107 173.905C116.443 178.474 143.264 180.452 143.264 180.452C143.264 180.452 141.88 213.915 144.325 220.768C146.77 227.622 205.737 180.452 205.737 180.452C205.737 180.452 300.907 178.658 308.243 174.09C315.578 169.521 315.578 37.0062 308.243 30.1516Z" fill="#087990"/>
<path d="M160.505 119.935C179.282 147.716 232.928 152.135 257.557 119.935" stroke="white" stroke-width="29.048" stroke-linejoin="round"/>
<path d="M184.215 70.9846V89.3374M234.696 70.9846V89.3374" stroke="white" stroke-width="29.048" stroke-linecap="round" stroke-linejoin="round"/>
<path d="M369.408 146.094C364.001 146.094 359.617 141.711 359.617 136.303C359.617 130.895 364.001 126.512 369.408 126.512C374.816 126.512 379.199 130.895 379.199 136.303C379.199 141.711 374.816 146.094 369.408 146.094Z" fill="#E1E4E5"/>
<path d="M352.831 87.7469C349.084 87.7469 346.046 84.7089 346.046 80.9614C346.046 77.2138 349.084 74.1758 352.831 74.1758C356.579 74.1758 359.617 77.2138 359.617 80.9614C359.617 84.7089 356.579 87.7469 352.831 87.7469Z" fill="#E1E4E5"/>
<path d="M130.341 215.12C130.341 222.033 124.737 227.636 117.824 227.636C110.912 227.636 105.308 222.033 105.308 215.12C105.308 208.208 110.912 202.604 117.824 202.604C124.737 202.604 130.341 208.208 130.341 215.12Z" fill="#E1E4E5"/>
<path d="M325.652 247.267C326.875 251.832 324.166 256.524 319.601 257.747C315.037 258.97 310.345 256.261 309.122 251.696C307.898 247.132 310.607 242.44 315.172 241.217C319.737 239.993 324.429 242.702 325.652 247.267Z" fill="#E1E4E5"/>
<path d="M234.547 212.004H234.645C235.227 220.559 241.353 220.69 241.353 220.69C241.353 220.69 234.597 220.827 234.597 230.712C234.597 220.827 227.842 220.69 227.842 220.69C227.842 220.69 233.965 220.559 234.547 212.004ZM345.752 177.293H345.85C346.432 185.848 352.558 185.979 352.558 185.979C352.558 185.979 345.802 186.116 345.802 196.001C345.802 186.116 339.047 185.979 339.047 185.979C339.047 185.979 345.17 185.848 345.752 177.293ZM149.062 233.878H149.16C149.742 242.433 155.868 242.564 155.868 242.564C155.868 242.564 149.112 242.701 149.112 252.586C149.112 242.701 142.357 242.564 142.357 242.564C142.357 242.564 148.481 242.433 149.062 233.878ZM85.4522 55.2279H85.5501C86.1316 63.7826 92.2578 63.9142 92.2578 63.9142C92.2578 63.9142 85.5027 64.0512 85.5027 73.9356C85.5027 64.0512 78.7472 63.9142 78.7472 63.9142C78.7472 63.9142 84.8707 63.7826 85.4522 55.2279Z" fill="#E1E4E5"/>
</g>
<defs>
<clipPath id="clip0_19_752">
<rect width="474" height="316" fill="white"/>
</clipPath>
</defs>
</svg>
