<svg width="514" height="267" viewBox="0 0 514 267" fill="none" xmlns="http://www.w3.org/2000/svg">
<g clip-path="url(#clip0_19_653)">
<path d="M208.899 70.9795H43.4023C36.3576 70.9795 30.6467 76.6953 30.6467 83.7462V249.387C30.6467 256.438 36.3576 262.154 43.4023 262.154H208.899C215.944 262.154 221.655 256.438 221.655 249.387V83.7462C221.655 76.6953 215.944 70.9795 208.899 70.9795Z" fill="#3DD5F3"/>
<path d="M125.709 291.362C140.116 291.362 151.796 279.672 151.796 265.252C151.796 250.832 140.116 239.142 125.709 239.142C111.301 239.142 99.6218 250.832 99.6218 265.252C99.6218 279.672 111.301 291.362 125.709 291.362Z" fill="#3DD5F3"/>
<path d="M17.8248 199.786C32.2323 199.786 43.9118 188.096 43.9118 173.676C43.9118 159.256 32.2323 147.566 17.8248 147.566C3.41735 147.566 -8.26221 159.256 -8.26221 173.676C-8.26221 188.096 3.41735 199.786 17.8248 199.786Z" fill="#3DD5F3"/>
<path d="M228.287 159.147C242.694 159.147 254.374 147.458 254.374 133.038C254.374 118.618 242.694 106.928 228.287 106.928C213.88 106.928 202.2 118.618 202.2 133.038C202.2 147.458 213.88 159.147 228.287 159.147Z" fill="#3DD5F3"/>
<path d="M133.909 42.469C133.909 42.469 118.055 39.9457 113.798 67.957C109.067 99.0987 96.4354 93.9755 76.3754 119.262C64.6511 134.038 76.9889 160.132 102.061 159.614C127.133 159.11 149.775 151.854 164.197 154.958C178.619 158.062 179.412 121.092 165.182 109.685C150.952 98.2785 181.291 65.5218 162.804 50.9358C144.317 36.3493 133.909 42.469 133.909 42.469Z" fill="#31446C"/>
<path d="M39.1432 165.99C37.6973 163.016 37.7854 159.561 38.3071 156.337C40.5667 142.5 50.2558 130.937 61.3608 122.464C72.5028 113.969 85.2552 107.904 96.9775 100.292C100.02 98.3091 103.07 96.1738 106.562 95.1021C110.055 94.0309 114.115 94.1465 116.999 96.4004C119.036 97.9822 120.212 100.428 120.897 102.874C122.398 108.231 121.823 113.903 120.908 119.336C119.763 126.19 118.083 132.972 115.323 139.271C113.111 144.352 109.511 149.581 104.1 150.576C102.534 156.648 99.3111 162.34 94.7893 166.694C89.6182 171.686 83.0612 174.951 76.2567 177.231C69.9874 179.336 63.13 180.71 56.8237 178.745C53.0805 177.601 49.7839 175.399 46.5599 173.152C43.6835 171.239 40.6981 169.144 39.1432 165.99ZM95.8053 156.763L99.5063 150.882C98.7174 150.963 97.9724 151.116 97.2205 151.422C95.1885 152.302 93.9646 155.506 95.8053 156.763Z" fill="#31446C"/>
<path d="M164.388 67.1029C164.58 68.1427 164.615 69.2324 164.544 70.4759C164.123 77.7299 162.563 84.915 159.922 91.6685C158.307 95.6887 156.33 99.6515 153.533 102.98C152.372 104.362 151.057 105.639 149.34 106.132C147.57 106.623 145.341 106.693 143.586 106.252C142.038 112.659 142.684 124.752 148.211 129.296C149.9 130.67 151.908 131.53 153.917 132.286C157.832 133.798 161.908 134.949 165.988 135.841C170.636 136.845 175.702 137.597 178.966 141.017C179.375 141.438 179.78 142.015 179.616 142.583C179.507 142.944 179.244 143.199 178.93 143.402C176.359 145.489 173.182 146.633 170.004 147.726C164.431 149.612 158.708 151.184 152.889 152.237C146.81 153.337 140.533 153.864 134.377 153.2C129.618 152.661 124.921 151.448 120.601 149.309C116.076 147.062 111.44 145.228 106.758 143.082C102.795 141.259 98.8895 139.177 94.5999 138.438C96.6273 134.579 100.857 132.413 105.07 131.388C109.281 130.415 113.687 130.327 117.948 129.51C119.351 129.22 120.756 128.878 121.961 128.015C125.261 125.628 124.357 120.325 124.41 116.851L124.577 105.859C124.086 100.613 121.925 96.2249 120.029 91.4247C117.135 84.0685 116.537 75.7102 119.086 68.1772C121.635 60.6959 127.433 54.1984 134.883 51.5633C142.332 48.9276 151.273 50.4124 156.994 55.8925C160.619 59.4225 163.576 62.579 164.388 67.1029Z" fill="#F8AE9D"/>
<path d="M141.48 43.7303C148.904 42.9011 155.67 46.5403 160.686 52.1812C164.906 56.9093 167.386 63.1516 167.261 69.4226C167.243 70.3188 167.143 71.2942 166.638 72.0991C165.297 74.0275 162.38 73.3177 160.2 72.4591C156.645 71.0848 153.999 69.076 150.777 67.3825C147.554 65.6883 143.641 65.936 140.757 63.5972C138.034 61.3426 128.686 56.5927 128.434 52.921C128.116 48.4335 136.33 44.7682 139.764 44.0227C140.256 43.8695 140.827 43.7993 141.48 43.7303Z" fill="#31446C"/>
<path d="M120.089 53.8887C113.811 57.9421 110.865 65.0411 110.538 72.5849C110.252 78.9191 112.27 85.326 116.326 90.1078C116.906 90.7908 117.6 91.4827 118.499 91.7879C120.756 92.4345 122.568 90.0395 123.717 87.9949C125.604 84.6819 126.387 81.4513 127.815 78.1007C129.244 74.7495 132.433 72.4674 133.191 68.8302C133.879 65.3609 138.126 55.7673 136.003 52.7621C133.416 49.0834 124.736 51.4369 121.603 53.0302C121.126 53.2223 120.638 53.5287 120.089 53.8887Z" fill="#31446C"/>
<path d="M175.933 139.415C176.925 138.963 178.111 139.293 178.771 140.184C186.178 150.565 189.038 163.573 191.543 176.109C194.383 190.362 196.912 204.662 199.338 218.96C199.482 219.688 199.574 220.468 199.253 221.137C198.932 221.806 198.201 222.158 197.523 222.459C193.243 224.52 188.912 226.529 184.632 228.59C180.024 218.096 176.669 206.999 174.716 195.716C171.968 202.675 167.006 208.719 160.676 212.668C165.393 219.429 170.739 231.882 176.4 237.828C177.145 239.966 176.01 238.22 174.058 238.22C170.838 238.689 170.957 237.917 168.202 237.828C164.219 237.353 162.888 237.646 158.892 238.052C152.249 238.781 145.792 240.86 139.89 243.986C136.955 245.549 134.14 247.326 131.467 249.303C129.161 251.031 123.452 255.093 123.452 255.093C123.032 255.398 121.07 254.953 120.605 254.842C119.251 254.612 117.888 254.436 116.52 254.314C113.104 254.054 109.64 253.587 106.281 252.965C99.5127 251.722 92.8575 249.805 86.4727 247.167C85.8578 246.691 88.0512 242.161 88.1679 241.281C88.0518 242.109 75.4767 241.088 74.2363 240.862C69.2775 239.852 64.2601 239.31 59.3021 238.249C61.5222 218.265 67.6187 198.962 73.6087 179.813C75.9512 172.278 78.3455 164.742 81.6657 157.636C85.2003 150.067 89.7636 142.98 95.2478 136.684C95.406 136.531 95.6662 136.431 95.8729 136.487C98.505 137.148 114.557 141.282 122.543 144.256C126.612 145.821 130.736 147.233 134.912 148.644C136.561 149.188 138.263 149.733 139.973 149.707C141.114 149.672 142.257 149.431 143.349 149.187C154.475 146.712 165.604 144.029 175.933 139.415Z" fill="white"/>
<path d="M103.517 179.231C103.059 182.076 102.445 184.971 101.832 187.814C100.34 194.265 98.4265 200.611 96.1031 206.811C94.9169 209.904 93.6789 212.945 92.2854 215.984C91.5889 217.478 90.8931 218.971 90.145 220.463C89.7713 221.184 89.3969 221.956 89.0232 222.676C88.703 223.293 88.3318 223.858 88.0123 224.424C90.2413 224.354 101.242 224.99 103.519 225.18M170.613 178.655C172.061 184.923 173.106 191.253 173.813 197.712" stroke="white" stroke-width="1.376" stroke-miterlimit="10" stroke-linecap="round"/>
<path d="M393.531 338.823H228.034C220.99 338.823 215.279 333.108 215.279 326.057V160.416C215.279 153.365 220.99 147.649 228.034 147.649H393.531C400.576 147.649 406.287 153.365 406.287 160.416V326.057C406.287 333.108 400.576 338.823 393.531 338.823Z" fill="#3DD5F3"/>
<path d="M310.341 118.442C324.748 118.442 336.428 130.132 336.428 144.552C336.428 158.972 324.748 170.662 310.341 170.662C295.933 170.662 284.254 158.972 284.254 144.552C284.254 130.132 295.933 118.442 310.341 118.442Z" fill="#3DD5F3"/>
<path d="M202.457 210.018C216.864 210.018 228.544 221.708 228.544 236.128C228.544 250.548 216.864 262.238 202.457 262.238C188.05 262.238 176.37 250.548 176.37 236.128C176.37 221.708 188.05 210.018 202.457 210.018Z" fill="#3DD5F3"/>
<path d="M412.919 250.656C427.327 250.656 439.006 262.345 439.006 276.765C439.006 291.185 427.327 302.875 412.919 302.875C398.512 302.875 386.832 291.185 386.832 276.765C386.832 262.345 398.512 250.656 412.919 250.656Z" fill="#3DD5F3"/>
<path d="M327.758 123.849C328.516 126.88 327.511 130.032 325.854 132.679C324.682 134.549 323.045 132.484 320.658 132.153C316.965 131.635 314.627 127.723 313.828 118.191C313.458 111.229 313.632 107.756 314.02 107.148C315.399 104.973 318.947 104.244 321.744 104.454" fill="#31446C"/>
<path fill-rule="evenodd" clip-rule="evenodd" d="M231.165 157.726C231.165 157.726 233.758 143.266 232.825 140.338C232.03 137.807 224.504 134.158 224.504 134.158C224.504 134.158 211.415 113.464 208.551 115.571C206.221 117.279 215.368 132.536 215.368 132.536C215.368 132.536 207.027 141.294 207.143 145.209C207.26 149.124 220.756 161.38 220.756 161.38L231.165 157.726ZM365.689 161.123C365.689 161.123 357.068 159.098 356.769 144.961C356.47 130.824 356.68 125.999 356.68 125.999L336.244 125.655C336.244 125.655 336.038 141.411 336.035 147.11C336.026 159.516 326.821 162.868 326.821 162.868C326.821 162.868 327.586 176.433 344.791 177.402C358.224 178.159 365.689 161.123 365.689 161.123Z" fill="#F8AE9D"/>
<path fill-rule="evenodd" clip-rule="evenodd" d="M358.558 118.853C367.027 118.524 365.646 130.935 356.847 130.918C356.847 130.918 347.391 149.949 332.545 149.998C325.393 150.022 323.058 143.646 320.914 139.171C318.771 134.695 317.197 128.001 317.066 123.901C316.925 119.53 316.908 105.172 316.908 105.172L358.887 105.153L358.558 118.853Z" fill="#F8AE9D"/>
<path fill-rule="evenodd" clip-rule="evenodd" d="M326.498 162.026C326.498 162.026 304.482 168.904 299.177 177.122C282.087 192.149 260.712 212.786 260.712 212.786C260.712 212.786 240.354 161.647 233.699 155.816C229.145 151.828 220.072 156.76 218.382 161.83C216.21 168.341 230.153 206.533 236.739 224.571L236.739 224.573C238.015 228.066 239.014 230.803 239.567 232.408C243.582 244.068 253.352 250.756 265.242 243.345C270.035 240.357 284.297 230.569 296.465 221.694C296.655 231.017 296.976 240.841 297.281 250.171V250.172C298.02 272.839 298.664 292.592 297.116 295.158C289.441 307.88 299.645 316.613 333.429 319.822C367.213 323.031 397.185 320.404 391.747 303.426C390.613 299.888 390.627 292.273 391.193 282.381C394.502 282.204 397.81 281.986 401.114 281.726C415.214 280.614 425.641 274.55 427.095 258.803C428.114 247.775 407.123 196.003 399.252 178.979C397.41 174.997 394.563 172.516 391.338 171.28C390.587 170.441 389.742 169.852 388.791 169.539C383.009 167.631 362.279 158.914 362.279 158.914L337.618 175.064L326.498 162.026ZM393.477 253.16L393.532 253.303L393.464 253.312L393.477 253.16Z" fill="white"/>
<path fill-rule="evenodd" clip-rule="evenodd" d="M338.757 266.823C338.757 266.823 331.235 265.309 328.157 262.891C325.079 260.472 315.756 258.762 315.756 258.762L318.739 265.048C318.739 265.048 295.89 262.902 295.349 265.158C294.807 267.414 301.416 269.866 301.416 269.866C301.416 269.866 304.675 275.959 307.83 279.49C310.815 282.833 325.646 282.435 330.845 280.349C335.337 278.548 340.222 279.448 340.222 279.448L338.757 266.823Z" fill="#F8AE9D"/>
<path d="M356.253 105.738C355.016 107.36 352.834 107.717 351.036 108.038C348.62 108.468 347.424 109.366 346.169 111.775C345.375 113.315 344.581 115 343.16 115.834C342.002 116.516 342.037 114.79 341.866 113.456C341.849 113.332 341.825 113.208 341.793 113.086C341.516 112.02 340.385 112.199 340.058 113.251C339.757 114.204 339.112 115.01 338.293 115.459C338.16 115.532 338.017 115.596 337.875 115.568C337.683 115.541 337.532 115.358 337.407 115.193C337.146 114.85 336.887 114.415 336.619 113.955C335.735 112.432 334.047 112.966 333.059 114.423C332.44 115.33 331.705 116.265 330.692 116.475C330.367 116.549 329.957 116.494 329.807 116.173C329.614 115.779 329.915 115.385 329.865 114.982C329.823 114.606 329.664 114.442 329.488 114.121C328.804 112.884 327.217 112.839 326.249 113.87C325.576 114.586 324.874 115.275 324.146 115.935C323.836 116.21 323.385 116.484 323.076 116.21C322.908 116.063 322.866 115.816 322.833 115.577C322.657 114.414 322.49 113.251 322.315 112.087C322.214 111.436 321.871 110.585 321.286 110.75C321.001 110.832 320.834 111.134 320.676 111.409C320.484 111.757 317.047 115.724 316.98 115.422C316.445 113.168 315.349 111.116 314.814 108.862C311.353 94.3597 326.713 82.6974 338.443 82.6329C341.053 82.6144 343.435 82.6578 345.969 83.2719C348.67 83.9313 351.521 84.9781 353.971 86.4533C357.407 88.5145 360.008 92.2615 359.339 96.7324" fill="#31446C"/>
<path d="M346.713 101.05C345.06 102.944 344.622 105.608 344.468 108.125C344.241 111.92 344.549 115.863 346.284 119.232C346.779 120.192 347.143 124.938 347.905 124.676C348.149 124.594 348.108 120.913 348.749 118.929C349.738 115.855 354.295 114.683 356.347 116.626C359.623 119.716 357.701 123.471 356.615 125.807C355.966 127.217 354.936 128.799 354.758 130.291C354.539 132.201 354.474 139.161 355.707 140.784C356.736 142.145 357.831 135.57 358.764 134.275C367.443 128.47 372.281 100.058 360.499 94.7299C358.707 93.918 353.177 93.4999 351.498 94.5327" fill="#31446C"/>
<path d="M418.963 79.6098L431.689 86.7425L432.58 89.7995L430.926 93.4935C428.507 94.3004 423.213 95.8879 421.381 95.7864C419.548 95.6843 417.138 97.4422 416.163 98.334C415.824 100.287 415.119 104.422 415.018 105.339C414.915 106.256 413.109 110.902 412.218 113.11H405.981L403.691 108.014L392.619 81.648L390.201 72.2217L391.855 69.6747L400 73.2411L418.963 79.6098Z" fill="#3DD5F3"/>
<path fill-rule="evenodd" clip-rule="evenodd" d="M395.533 67.3767C390.325 65.2045 385.099 70.435 387.269 75.6489L402.244 111.62C405.172 118.655 415.474 117.465 416.726 109.948L418.594 98.7291L429.803 96.8588C437.314 95.6064 438.502 85.296 431.473 82.3648L395.533 67.3767ZM391.936 73.7026C391.502 72.6596 392.547 71.6134 393.589 72.0481L429.529 87.0361C431.871 88.0128 431.476 91.4496 428.972 91.8677L417.763 93.7373C416.723 93.9106 415.764 94.4047 415.019 95.1505C414.274 95.8962 413.78 96.8564 413.607 97.8967L411.738 109.116C411.321 111.622 407.887 112.019 406.911 109.673L391.936 73.7026Z" fill="#3DD5F3"/>
<path d="M10.9821 103.41C7.28364 103.41 4.28544 100.409 4.28544 96.7075C4.28544 93.0058 7.28364 90.005 10.9821 90.005C14.6806 90.005 17.6788 93.0058 17.6788 96.7075C17.6788 100.409 14.6806 103.41 10.9821 103.41Z" fill="#3DD5F3"/>
<path d="M446.481 170.943C443.132 170.943 440.417 168.225 440.417 164.873C440.417 161.521 443.132 158.804 446.481 158.804C449.83 158.804 452.545 161.521 452.545 164.873C452.545 168.225 449.83 170.943 446.481 170.943Z" fill="#3DD5F3"/>
<path d="M82.6065 58.2441C77.8728 58.2441 74.0354 54.4033 74.0354 49.6655C74.0354 44.9277 77.8728 41.087 82.6065 41.087C87.3401 41.087 91.1776 44.9277 91.1776 49.6655C91.1776 54.4033 87.3401 58.2441 82.6065 58.2441Z" fill="#E1E4E5"/>
<path d="M300.4 70.9054C295.137 70.9054 290.871 66.6354 290.871 61.3681C290.871 56.1008 295.137 51.8307 300.4 51.8307C305.663 51.8307 309.929 56.1008 309.929 61.3681C309.929 66.6354 305.663 70.9054 300.4 70.9054Z" fill="#E1E4E5"/>
<path d="M9.76805 264.236C10.9912 268.804 8.28219 273.501 3.71729 274.725C-0.847614 275.949 -5.53977 273.238 -6.76293 268.669C-7.98609 264.1 -5.27708 259.404 -0.712172 258.18C3.85273 256.955 8.54489 259.667 9.76805 264.236Z" fill="#E1E4E5"/>
<path d="M433.45 212.686C428.614 212.686 424.693 209.546 424.693 205.674C424.693 201.802 428.614 198.663 433.45 198.663C438.286 198.663 442.207 201.802 442.207 205.674C442.207 209.546 438.286 212.686 433.45 212.686Z" fill="#E1E4E5"/>
<path d="M371.195 55.4204C372.467 60.1721 369.65 65.0564 364.902 66.3296C360.155 67.6028 355.275 64.7829 354.002 60.0312C352.73 55.2794 355.548 50.3952 360.295 49.122C365.043 47.8488 369.923 50.6687 371.195 55.4204Z" fill="#E1E4E5"/>
<path d="M451.447 233.043H451.607C452.562 246.471 462.621 246.678 462.621 246.678C462.621 246.678 451.529 246.893 451.529 262.409C451.529 246.893 440.437 246.678 440.437 246.678C440.437 246.678 450.492 246.471 451.447 233.043ZM268.255 87.6432H268.459C269.662 105.054 282.346 105.322 282.346 105.322C282.346 105.322 268.36 105.601 268.36 125.719C268.36 105.601 254.373 105.322 254.373 105.322C254.373 105.322 267.052 105.054 268.255 87.6432Z" fill="#E1E4E5"/>
</g>
<defs>
<clipPath id="clip0_19_653">
<rect width="574" height="383" fill="white" transform="translate(-60)"/>
</clipPath>
</defs>
</svg>
